<svg width="243" height="196" viewBox="0 0 243 196" fill="none" xmlns="http://www.w3.org/2000/svg">
<path d="M13.3304 72.0217C14.6788 74.6655 15.2168 77.6485 14.8769 80.5967C14.5591 83.1126 13.6852 85.5489 14.003 88.1124C14.5009 92.159 17.3398 95.3845 19.6332 98.5677C20.9658 100.275 22.0369 102.17 22.8111 104.193C23.6479 106.682 23.4467 109.272 22.9806 111.814C22.1013 116.645 20.862 121.184 23.5685 125.67C25.0621 128.138 27.0801 130.23 28.4836 132.757C29.9969 135.545 30.9437 138.605 31.2696 141.761C31.3014 142.047 31.8522 142.142 31.8257 141.819C31.6391 139.17 30.9846 136.575 29.8925 134.155C28.7855 131.708 27.1754 129.653 25.5864 127.513C23.9975 125.373 22.6151 123.011 22.4721 120.22C22.3397 117.614 23.0018 115.045 23.5314 112.513C23.9869 110.188 24.3259 107.789 23.8333 105.443C23.3632 103.481 22.5296 101.625 21.3757 99.9713C19.0559 96.465 15.7773 93.2606 14.8134 89.0552C14.1089 85.9727 15.343 83.0543 15.5443 80.0035C15.7588 77.177 15.0827 74.3543 13.6111 71.9317C13.4998 71.7516 13.2244 71.794 13.3356 72.0217H13.3304Z" fill="#37474F"/>
<path d="M12.6304 76.5449C12.498 75.7028 13.891 73.1075 14.2194 73.0598C14.5478 73.0122 16.481 75.0301 16.624 75.9305C16.6338 76.1094 16.5963 76.2878 16.5155 76.4477C16.4346 76.6075 16.3131 76.7434 16.1632 76.8415C15.7606 77.1323 15.2948 77.3233 14.804 77.3988C14.3132 77.4743 13.8115 77.4322 13.3402 77.2758C13.1663 77.2295 13.0081 77.1372 12.8823 77.0086C12.7565 76.8799 12.6676 76.7198 12.6251 76.5449H12.6304Z" fill="#09DA78"/>
<path opacity="0.1" d="M12.6304 76.5449C12.498 75.7028 13.891 73.1075 14.2194 73.0598C14.5478 73.0122 16.481 75.0301 16.624 75.9305C16.6338 76.1094 16.5963 76.2878 16.5155 76.4477C16.4346 76.6075 16.3131 76.7434 16.1632 76.8415C15.7606 77.1323 15.2948 77.3233 14.804 77.3988C14.3132 77.4743 13.8115 77.4322 13.3402 77.2758C13.1663 77.2295 13.0081 77.1372 12.8823 77.0086C12.7565 76.8799 12.6676 76.7198 12.6251 76.5449H12.6304Z" fill="#333333"/>
<path d="M0.174784 59.665C1.14934 66.1373 7.50513 73.5312 14.3906 74.0556C20.7834 71.1637 24.6181 62.5357 23.6224 56.0475C22.6266 49.5593 17.5314 44.1728 9.98389 45.3327C2.43639 46.4926 -0.820957 53.1927 0.174784 59.665Z" fill="#09DA78"/>
<path opacity="0.05" d="M23.6278 59.5273C23.6278 59.5273 22.8651 66.0049 15.2275 67.6786C7.8972 69.2993 0.61982 62.0908 0.0213158 56.6725C-0.0303492 57.6726 0.0211213 58.6754 0.174914 59.665C1.14947 66.1373 7.50526 73.5312 14.3907 74.0556C19.6872 71.6615 23.2253 65.3269 23.7178 59.5432L23.6278 59.5273Z" fill="#333333"/>
<path d="M228.428 97.6621C227.232 99.3308 226.423 101.245 226.061 103.266C225.711 105.273 226.061 107.275 226.161 109.288C226.32 111.936 225.748 114.155 223.99 116.173C222.597 117.762 220.912 119.086 219.652 120.802C217.12 124.25 216.548 128.106 217.067 132.275C217.655 136.994 218.751 141.432 216.479 145.913C215.261 148.318 213.651 150.51 212.798 153.095C212.036 155.611 211.71 158.239 211.834 160.865C211.834 161.156 212.39 161.246 212.396 160.923C212.352 158.418 212.675 155.92 213.354 153.508C214.048 151.294 215.298 149.351 216.431 147.343C217.58 145.454 218.303 143.338 218.55 141.141C218.654 139.165 218.52 137.185 218.153 135.241C217.803 132.979 217.38 130.686 217.491 128.392C217.629 126.116 218.349 123.913 219.583 121.994C221.754 118.546 225.97 116.428 226.696 112.143C227.046 110.066 226.601 107.958 226.5 105.882C226.362 103.001 227.31 100.374 228.703 97.8951C228.794 97.7415 228.534 97.4926 228.417 97.6568L228.428 97.6621Z" fill="#37474F"/>
<path d="M229.12 102.397C229.3 101.56 228.061 98.8855 227.748 98.8114C227.436 98.7372 225.365 100.639 225.169 101.528C225.147 101.706 225.172 101.886 225.242 102.051C225.312 102.215 225.423 102.358 225.566 102.466C225.951 102.779 226.404 102.998 226.889 103.105C227.374 103.211 227.877 103.203 228.358 103.08C228.533 103.043 228.696 102.96 228.83 102.841C228.964 102.721 229.064 102.568 229.12 102.397Z" fill="#09DA78"/>
<path opacity="0.1" d="M229.12 102.397C229.3 101.56 228.061 98.8855 227.748 98.8114C227.436 98.7372 225.365 100.639 225.169 101.528C225.147 101.706 225.172 101.886 225.242 102.051C225.312 102.215 225.423 102.358 225.566 102.466C225.951 102.779 226.404 102.998 226.889 103.105C227.374 103.211 227.877 103.203 228.358 103.08C228.533 103.043 228.696 102.96 228.83 102.841C228.964 102.721 229.064 102.568 229.12 102.397Z" fill="#333333"/>
<path d="M242.629 86.3752C241.225 92.7681 234.43 99.7436 227.534 99.8283C221.337 96.5286 218.063 87.6782 219.472 81.2906C220.881 74.903 226.31 69.829 233.773 71.4709C241.236 73.1128 244.037 79.9506 242.629 86.3752Z" fill="#09DA78"/>
<path opacity="0.05" d="M219.232 84.7068C219.232 84.7068 219.608 91.2215 227.092 93.3825C234.305 95.464 242.028 88.7375 242.981 83.3668C242.964 84.37 242.847 85.3689 242.632 86.3487C241.228 92.7416 234.433 99.7171 227.537 99.8018C222.399 97.0689 219.279 90.5224 219.157 84.7174L219.232 84.7068Z" fill="#333333"/>
<path d="M149.619 5.65134C147.145 5.4077 143.792 9.53897 146.218 11.5252C147.563 12.6268 150.492 12.1501 150.455 10.0898C150.449 10.0327 150.425 9.97902 150.386 9.93698C150.347 9.89494 150.295 9.86679 150.238 9.85676C148.294 9.41185 146.366 10.2487 146.695 12.505C146.871 13.4777 147.372 14.3618 148.116 15.0131C148.859 15.6644 149.802 16.0443 150.789 16.0907C150.906 16.0907 150.863 15.8895 150.789 15.8683C149.094 15.5134 147.495 14.4594 147.161 12.648C147.086 12.3274 147.079 11.9945 147.142 11.6713C147.205 11.348 147.336 11.0419 147.526 10.7731C147.753 10.5008 148.052 10.2987 148.39 10.1904C148.681 10.1004 149.724 9.93621 149.979 10.1904C150.434 10.6618 149.195 11.4616 148.824 11.5887C148.458 11.7201 148.067 11.7692 147.68 11.7326C147.293 11.696 146.919 11.5745 146.584 11.3769C145.556 10.6565 145.81 9.30063 146.308 8.34196C146.981 7.04432 148.157 5.99032 149.672 5.93735C149.809 5.93735 149.735 5.67783 149.629 5.66723L149.619 5.65134Z" fill="#09DA78"/>
<path d="M150.441 87.0267C151.22 85.2735 151.135 83.4568 153.402 82.8795C154.398 82.6253 156.754 82.3922 157.501 83.2767C157.637 83.4903 157.692 83.7456 157.656 83.9963C157.62 84.247 157.496 84.4765 157.305 84.6432C156.717 85.1729 156.278 84.5373 156.124 83.9759C156.006 83.4575 156.051 82.9152 156.254 82.4238C156.457 81.9324 156.808 81.5161 157.258 81.2323C158.209 80.6058 159.36 80.3584 160.485 80.5388C161.609 80.7192 162.625 81.3143 163.333 82.2069C163.417 82.3128 163.507 82.2069 163.47 82.0903C161.733 78.0915 153.407 80.8721 156.055 84.7068C156.866 85.8667 158.296 84.8445 158.026 83.6157C157.729 82.2545 155.409 82.3234 154.382 82.3922C153.34 82.3928 152.336 82.7797 151.564 83.478C150.658 84.3678 150.536 85.7767 150.346 86.9737C150.346 87.0267 150.393 87.1061 150.43 87.0267H150.441Z" fill="#09DA78"/>
<path d="M209.83 1.03808C211.456 0.561393 213.691 0.693805 215.052 1.79018C216.111 2.63762 216.705 4.4755 215.153 5.10579C214.544 5.34942 212.536 5.34942 212.298 4.52317C212.128 3.94585 212.748 3.60158 213.246 3.52743C214.703 3.29968 216.069 4.83566 216.032 6.20746C215.984 8.26779 213.585 8.95104 211.89 8.96693C211.779 8.96693 211.805 9.17879 211.89 9.18408C214.777 9.4648 217.997 6.79007 215.428 4.11004C214.74 3.38972 213.659 2.87596 212.663 3.2732C212.102 3.50095 211.657 4.00941 211.938 4.61851C212.388 5.59836 214.199 5.76785 215.079 5.51891C215.312 5.4569 215.53 5.34774 215.719 5.19817C215.908 5.04861 216.065 4.86182 216.179 4.64935C216.293 4.43689 216.362 4.20326 216.383 3.96292C216.403 3.72257 216.374 3.48062 216.297 3.25201C215.587 0.646138 211.938 0.0741156 209.777 0.884479C209.713 0.884479 209.74 1.05926 209.814 1.03808H209.83Z" fill="#09DA78"/>
<path d="M231.138 110.374C232.764 109.897 234.999 110.029 236.36 111.126C237.419 111.973 238.013 113.811 236.461 114.441C235.852 114.685 233.844 114.685 233.606 113.853C233.436 113.281 234.056 112.937 234.549 112.858C236.011 112.635 237.372 114.171 237.34 115.543C237.292 117.603 234.893 118.287 233.198 118.303C233.087 118.303 233.113 118.514 233.198 118.52C236.085 118.8 239.305 116.126 236.736 113.446C236.048 112.725 234.967 112.212 233.971 112.609C233.41 112.831 232.965 113.345 233.246 113.954C233.696 114.934 235.507 115.103 236.387 114.849C236.62 114.788 236.838 114.68 237.028 114.531C237.217 114.383 237.374 114.196 237.489 113.984C237.603 113.772 237.672 113.538 237.692 113.298C237.712 113.058 237.683 112.816 237.605 112.588C236.895 109.976 233.246 109.41 231.085 110.22C231.021 110.22 231.042 110.395 231.122 110.374H231.138Z" fill="#09DA78"/>
<path d="M219.221 31.1804C217.282 31.7577 215.481 35.1687 217.282 36.7205C218.813 38.0394 221.906 37.7428 221.392 35.2269C221.387 35.1982 221.375 35.1714 221.357 35.149C221.338 35.1267 221.314 35.1097 221.286 35.0998C219.253 34.6125 218.58 36.9854 219.009 38.5531C219.671 40.9895 222.129 40.9577 223.903 39.6866C223.961 39.6442 223.935 39.4747 223.85 39.5171C222.399 40.2427 220.365 40.8889 219.48 39.0351C219.009 38.0447 218.993 36.3868 219.904 35.64C220.141 35.4189 220.454 35.2975 220.778 35.3011C221.456 35.3805 221.339 36.1114 220.958 36.5775C220.349 37.319 219.125 37.2396 218.31 36.9536C215.519 35.9631 217.436 32.3456 219.258 31.3287C219.311 31.2969 219.3 31.1592 219.221 31.1804Z" fill="#09DA78"/>
<path d="M176.114 22.6584C173.826 22.367 168.905 24.295 170.187 27.4252C170.87 29.0936 173.921 30.1635 174.922 28.2515C174.944 28.1994 174.944 28.141 174.923 28.0886C174.902 28.0362 174.862 27.994 174.811 27.9707C170.044 25.2695 165.023 33.0713 170.081 35.9155C170.24 36.0055 170.235 35.7354 170.145 35.6665C169.708 35.3678 169.336 34.9849 169.049 34.5404C168.762 34.096 168.567 33.5988 168.475 33.078C168.383 32.5572 168.395 32.0232 168.512 31.5073C168.629 30.9914 168.847 30.5039 169.154 30.0734C169.669 29.2507 170.403 28.587 171.273 28.1561C171.924 27.8489 173.561 27.4146 174.17 28.0502C174.445 28.3468 174.44 27.976 174.297 28.3203C174.161 28.5248 173.953 28.6704 173.714 28.7281C173.194 28.8933 172.633 28.8746 172.125 28.6752C171.066 28.3044 170.235 27.3299 170.537 26.1593C171.093 23.813 174.08 22.9814 176.172 22.9444C176.315 22.9444 176.225 22.6742 176.114 22.6584Z" fill="#09DA78"/>
<path d="M186.527 1.54134C186.527 1.54134 186.389 4.10484 188.291 5.5296L190.282 4.9205C190.282 4.9205 188.953 4.28492 188.291 1.54134H186.527Z" fill="#455A64"/>
<path d="M152.977 63.6003C152.977 63.6003 152.834 66.1638 154.735 67.5885L156.732 66.9794C156.732 66.9794 155.397 66.3439 154.735 63.6003H152.977Z" fill="#455A64"/>
<path d="M169.261 92.4874C169.261 92.4874 169.118 95.0456 171.025 96.4703L173.016 95.8665C173.016 95.8665 171.687 95.2257 171.025 92.4874H169.261Z" fill="#37474F"/>
<path d="M231.684 14.3853C231.684 14.3853 230.519 16.6734 228.162 16.9541L226.737 15.4287C226.737 15.4287 228.209 15.5452 230.158 13.5061L231.684 14.3853Z" fill="#455A64"/>
<path d="M218.025 96.1949C218.025 96.1949 216.865 98.483 214.503 98.7584L213.078 97.2383C213.078 97.2383 214.556 97.3496 216.5 95.3104L218.025 96.1949Z" fill="#455A64"/>
<path d="M185.426 48.1399C185.426 48.1399 184.266 50.428 181.904 50.7034L180.479 49.1833C180.479 49.1833 181.957 49.2945 183.9 47.2554L185.426 48.1399Z" fill="#09DA78"/>
<path d="M164.235 19.9043C164.235 19.9043 163.075 22.1923 160.718 22.4731L159.293 20.9477C159.293 20.9477 160.766 21.0642 162.715 19.025L164.235 19.9043Z" fill="#455A64"/>
<path d="M208.241 23.3469C208.241 23.3469 205.693 23.6647 204.141 21.8586L204.613 19.83C204.613 19.83 205.338 21.1171 208.119 21.5885L208.241 23.3469Z" fill="#09DA78"/>
<path d="M171.305 10.842C171.305 10.842 168.762 11.1598 167.21 9.35896L167.676 7.3304C167.676 7.3304 168.407 8.61215 171.188 9.08884L171.305 10.842Z" fill="#09DA78"/>
<path d="M128.471 5.28063C128.471 5.28063 125.929 5.59842 124.377 3.79762L124.843 1.76906C124.843 1.76906 125.574 3.05081 128.349 3.5275L128.471 5.28063Z" fill="#09DA78"/>
<path d="M158.947 39.4536C158.947 39.4536 156.405 39.7661 154.853 37.9653L155.319 35.9367C155.319 35.9367 156.05 37.2238 158.831 37.6951L158.947 39.4536Z" fill="#09DA78"/>
<path d="M235.16 58.4203C235.16 58.4203 232.612 58.7328 231.065 56.932L231.531 54.9034C231.531 54.9034 232.262 56.1905 235.038 56.6619L235.16 58.4203Z" fill="#09DA78"/>
<path d="M190.8 32.7482C190.8 32.7482 189.641 35.0363 187.278 35.317L185.854 33.7916C185.854 33.7916 187.596 34.0617 189.561 32.0226L190.8 32.7482Z" fill="#455A64"/>
<path d="M193.364 36.1274C193.364 36.1274 192.909 38.6538 190.716 39.5966L188.915 38.5373C190.189 37.9624 191.248 36.998 191.94 35.7831L193.364 36.1274Z" fill="#37474F"/>
<path d="M103.845 3.67051C106.324 3.42687 109.671 7.55284 107.245 9.53902C105.905 10.646 102.971 10.164 103.008 8.10367C103.015 8.04748 103.04 7.99504 103.079 7.95404C103.118 7.91305 103.17 7.88567 103.225 7.87592C105.174 7.43102 107.097 8.26257 106.769 10.5242C106.593 11.4958 106.093 12.3792 105.351 13.0297C104.608 13.6801 103.666 14.0591 102.68 14.1046C102.558 14.1046 102.6 13.9033 102.68 13.8874C104.375 13.5273 105.974 12.4733 106.303 10.6619C106.379 10.3422 106.386 10.0099 106.323 9.6873C106.26 9.36473 106.128 9.05947 105.937 8.79222C105.708 8.51056 105.4 8.30394 105.053 8.19901C104.767 8.10897 103.718 7.94478 103.49 8.19901C103.029 8.67569 104.274 9.47017 104.645 9.59728C105.01 9.73042 105.4 9.78049 105.786 9.74384C106.173 9.70719 106.547 9.58474 106.88 9.38542C107.907 8.6704 107.653 7.31449 107.155 6.35053C106.488 5.05819 105.307 3.99889 103.792 3.95122C103.66 3.95122 103.729 3.69169 103.834 3.6811L103.845 3.67051Z" fill="#09DA78"/>
<path d="M99.8686 90.4906C99.09 88.7374 99.1695 86.9207 96.9079 86.3381C95.9121 86.0839 93.5552 85.8508 92.8031 86.7407C92.6685 86.9538 92.6142 87.2079 92.6501 87.4574C92.6861 87.7069 92.8098 87.9354 92.9991 88.1018C93.5923 88.6315 94.0584 87.9959 94.1855 87.4398C94.3041 86.9206 94.2588 86.3775 94.0558 85.8851C93.8528 85.3928 93.5021 84.9756 93.052 84.6909C92.098 84.0573 90.9404 83.8063 89.8097 83.9879C88.6789 84.1695 87.6581 84.7703 86.9505 85.6708C86.871 85.7714 86.781 85.6708 86.818 85.5542C88.5553 81.5554 96.8814 84.336 94.2331 88.1707C93.4228 89.3306 91.9874 88.3031 92.2575 87.0796C92.5594 85.7184 94.9058 85.7873 95.9015 85.8508C96.9441 85.8531 97.9492 86.2397 98.7246 86.9366C99.6303 87.8317 99.7521 89.2406 99.9428 90.4323C99.9428 90.4906 99.8951 90.5647 99.858 90.4906H99.8686Z" fill="#09DA78"/>
<path d="M34.7813 1.03808C33.1553 0.561393 30.9202 0.693805 29.5537 1.79018C28.4944 2.63762 27.9065 4.4755 29.4584 5.10579C30.0675 5.34942 32.0748 5.34942 32.3132 4.52317C32.4827 3.94585 31.863 3.60158 31.3651 3.52743C29.9086 3.29968 28.5421 4.83566 28.5738 6.20746C28.6268 8.26779 31.0261 8.95104 32.721 8.96693C32.8322 8.96693 32.8057 9.17879 32.721 9.18408C29.8344 9.4648 26.6141 6.79007 29.1776 4.11004C29.8715 3.38972 30.952 2.87596 31.9477 3.2732C32.5091 3.50095 32.954 4.00941 32.6733 4.61851C32.2231 5.59836 30.4117 5.76785 29.5325 5.51891C29.2994 5.4569 29.0815 5.34774 28.8923 5.19817C28.7031 5.04861 28.5465 4.86182 28.4323 4.64935C28.3182 4.43689 28.2488 4.20326 28.2285 3.96292C28.2082 3.72257 28.2374 3.48062 28.3143 3.25201C29.024 0.646138 32.668 0.0741156 34.8343 0.884479C34.8979 0.884479 34.8714 1.05926 34.7972 1.03808H34.7813Z" fill="#09DA78"/>
<path d="M15.867 108.414C14.241 107.937 12.0059 108.07 10.6394 109.166C9.5801 110.013 8.98689 111.851 10.5441 112.482C11.1532 112.725 13.1552 112.725 13.3989 111.899C13.5631 111.322 12.9434 110.977 12.4508 110.903C10.989 110.676 9.62777 112.212 9.65954 113.583C9.70721 115.644 12.1065 116.327 13.8014 116.343C13.9179 116.343 13.8861 116.555 13.8014 116.565C10.9148 116.841 7.69455 114.166 10.258 111.486C10.9519 110.766 12.0271 110.252 13.0228 110.649C13.5895 110.877 14.0344 111.385 13.7537 111.994C13.3035 112.974 11.4868 113.144 10.6076 112.895C10.3746 112.833 10.1568 112.724 9.96771 112.574C9.77865 112.424 9.62239 112.237 9.50864 112.025C9.39489 111.812 9.32607 111.579 9.30648 111.338C9.28688 111.098 9.31692 110.856 9.39472 110.628C10.0992 108.022 13.7484 107.476 15.9147 108.26C15.9783 108.26 15.9518 108.435 15.8776 108.414H15.867Z" fill="#09DA78"/>
<path d="M20.0356 32.1603C21.9741 32.7377 23.7749 36.1486 21.9741 37.7005C20.4434 39.0246 17.3503 38.7227 17.864 36.2069C17.8698 36.1786 17.8825 36.1522 17.901 36.13C17.9195 36.1078 17.9432 36.0905 17.9699 36.0798C20.0038 35.5978 20.6765 37.9706 20.2474 39.5384C19.5854 41.9695 17.1278 41.943 15.3535 40.6665C15.2952 40.6241 15.3217 40.46 15.4064 40.5023C16.8577 41.2279 18.8915 41.8688 19.7761 40.015C20.2474 39.0246 20.2633 37.3668 19.3523 36.6253C19.116 36.4027 18.8031 36.2795 18.4784 36.281C17.8005 36.3605 17.917 37.0967 18.2983 37.5575C18.9074 38.299 20.1309 38.2195 20.9466 37.9335C23.7378 36.9484 21.8205 33.3256 19.9985 32.3086C19.9455 32.2769 19.9561 32.1392 20.0356 32.1603Z" fill="#09DA78"/>
<path d="M26.1969 75.5386C22.8972 75.8034 23.4904 82.0692 26.1545 82.9166C26.3183 82.9752 26.492 83.0007 26.6657 82.9916C26.8393 82.9825 27.0095 82.939 27.1662 82.8636C27.3616 82.7199 27.5185 82.5301 27.623 82.3111C27.7274 82.0921 27.7761 81.8507 27.7647 81.6084C27.4469 80.5491 25.6461 81.8944 25.4395 82.3128C25.0966 82.8642 24.9366 83.5098 24.9822 84.1575C25.0279 84.8052 25.2769 85.4219 25.6938 85.9197C27.0497 87.3868 29.6449 87.4345 31.3398 86.5871C31.4246 86.5394 31.4405 86.7036 31.3822 86.746C29.5549 87.9165 26.4935 87.747 25.1376 85.8932C24.0783 84.4102 24.8039 80.4749 27.1662 80.8245C29.3695 81.1476 27.8441 83.6581 26.1757 83.3244C24.5073 82.9908 23.9035 80.7768 23.7446 79.405C23.5434 77.6784 24.0571 75.3479 26.1969 75.385C26.2658 75.385 26.2605 75.5333 26.1969 75.5386Z" fill="#09DA78"/>
<path d="M67.6355 22.6584C69.9236 22.367 74.844 24.295 73.5623 27.4252C72.879 29.0936 69.8282 30.1635 68.8272 28.2515C68.8057 28.1994 68.8053 28.141 68.8261 28.0886C68.8468 28.0362 68.8871 27.994 68.9384 27.9707C73.7053 25.2695 78.7264 33.0713 73.6682 35.9155C73.5093 36.0055 73.5146 35.7354 73.6046 35.6665C74.0418 35.3677 74.4149 34.9846 74.7021 34.5397C74.9893 34.0948 75.1847 33.597 75.277 33.0756C75.3692 32.5541 75.3564 32.0195 75.2393 31.5031C75.1222 30.9867 74.9032 30.4988 74.5951 30.0681C74.0798 29.2454 73.3464 28.5817 72.4765 28.1508C71.825 27.8436 70.1884 27.4093 69.5793 28.0449C69.3039 28.3415 69.3092 27.9707 69.4522 28.315C69.5881 28.5195 69.7962 28.6651 70.0348 28.7228C70.5549 28.888 71.1159 28.8693 71.6238 28.6699C72.6831 28.2991 73.5146 27.3246 73.2127 26.154C72.6566 23.8077 69.6694 22.9761 67.5772 22.9391C67.4342 22.9391 67.5243 22.6689 67.6355 22.6531V22.6584Z" fill="#09DA78"/>
<path d="M58.3521 6.20217C58.3521 6.20217 58.4951 8.76567 56.5884 10.1904L54.5969 9.57603C54.5969 9.57603 55.9263 8.94045 56.5884 6.19687L58.3521 6.20217Z" fill="#455A64"/>
<path d="M99.5122 69.6436C99.5122 69.6436 99.6552 72.2071 97.7484 73.6318L95.757 73.028C95.757 73.028 97.0864 72.3871 97.7484 69.6436H99.5122Z" fill="#455A64"/>
<path d="M91.64 100.284C91.64 100.284 91.7777 102.847 89.8763 104.272L87.8848 103.663C87.8848 103.663 89.2142 103.027 89.8763 100.284H91.64Z" fill="#37474F"/>
<path d="M12.0645 14.3853C12.0645 14.3853 13.2297 16.6734 15.5866 16.9541L17.0379 15.4287C17.0379 15.4287 15.5654 15.5452 13.6163 13.5061L12.0645 14.3853Z" fill="#455A64"/>
<path d="M36.7038 93.4037C36.7038 93.4037 37.8637 95.6917 40.226 95.9725L41.6507 94.4471C41.6507 94.4471 40.173 94.5636 38.2292 92.5244L36.7038 93.4037Z" fill="#455A64"/>
<path d="M61.7894 51.1059C61.7894 51.1059 62.9494 53.394 65.3116 53.6747L66.7311 52.1493C66.7311 52.1493 65.2586 52.2658 63.3148 50.2267L61.7894 51.1059Z" fill="#09DA78"/>
<path d="M84.8351 21.1595C84.8351 21.1595 85.995 23.4476 88.3572 23.7283L89.7767 22.2029C89.7767 22.2029 88.3043 22.3195 86.3605 20.2803L84.8351 21.1595Z" fill="#455A64"/>
<path d="M35.502 23.3469C35.502 23.3469 38.0496 23.6647 39.6014 21.8586L39.1301 19.83C39.1301 19.83 38.4044 21.1171 35.6238 21.5885L35.502 23.3469Z" fill="#09DA78"/>
<path d="M79.0066 3.51158C79.0066 3.51158 81.5542 3.82937 83.1061 2.02856L82.64 0C82.64 0 81.9091 1.28175 79.1284 1.75844L79.0066 3.51158Z" fill="#09DA78"/>
<path d="M84.7872 37.3138C84.7872 37.3138 87.3295 37.6263 88.8814 35.8255L88.4153 33.7969C88.4153 33.7969 87.6844 35.084 84.9038 35.5554L84.7872 37.3138Z" fill="#09DA78"/>
<path d="M2.2085 87.6782C2.2085 87.6782 4.75611 87.996 6.30798 86.1952L5.84189 84.1613C5.84189 84.1613 5.11097 85.4484 2.33032 85.9197L2.2085 87.6782Z" fill="#09DA78"/>
<path d="M52.9488 32.7482C52.9488 32.7482 54.1087 35.0363 56.471 35.317L57.8957 33.7916C57.8957 33.7916 56.1532 34.0617 54.1882 32.0226L52.9488 32.7482Z" fill="#455A64"/>
<path d="M50.4082 36.1274C50.4082 36.1274 50.8637 38.6538 53.0565 39.5966L54.8573 38.5373C53.5831 37.9624 52.5242 36.998 51.833 35.7831L50.4082 36.1274Z" fill="#37474F"/>
<path d="M134.028 22.9444C134.028 22.9444 132.868 25.2325 130.506 25.5132L129.081 23.9931C129.081 23.9931 130.824 24.258 132.789 22.2188L134.028 22.9444Z" fill="#455A64"/>
<path d="M122.609 20.2008C122.609 20.2008 122.154 22.7272 119.961 23.6753L118.16 22.616C119.436 22.0403 120.495 21.0739 121.185 19.8565L122.609 20.2008Z" fill="#37474F"/>
<path d="M189.98 145.844C190.034 147.658 190.247 149.464 190.615 151.241C191.494 162.311 192.644 164.912 193.968 172.576C194.111 173.434 194.455 175.134 194.497 175.701C194.561 176.416 194.889 181.823 195.181 183.433C195.599 185.796 199.524 185.854 199.826 183.11C200.027 181.283 199.54 176.463 199.503 175.584C199.503 175.584 199.503 174.027 199.503 173.269C199.503 169.827 200.069 163.206 200.398 157.226C200.647 152.719 199.715 150.479 199.158 148.222C199.158 148.222 200.292 140.918 201.669 132.862C203.046 124.807 206.399 115.58 199.693 108.281L190.44 111.459C190.44 111.459 189.492 126.247 189.852 138.27C189.927 141.702 189.985 144.165 189.98 145.844Z" fill="#FFBDA7"/>
<path d="M185.686 158.884C187.11 160.775 188.021 163.068 188.959 165.24C188.548 166.377 188 167.461 187.327 168.466L183.546 163.534C184.282 161.983 184.981 160.431 185.686 158.884Z" fill="#333333"/>
<path d="M187.327 168.471C185.648 168.471 183.964 168.471 182.28 168.471C181.438 167.385 180.585 166.31 179.748 165.224C181.506 165.277 183.265 165.383 185.044 165.431L187.327 168.471Z" fill="#333333"/>
<path d="M181.229 156.76C182.289 155.982 182.384 156.909 183.295 157.332C183.93 157.629 184.99 158.026 185.609 158.874C186.478 160.06 185.795 162.173 185.371 163.693C184.966 165.173 184.983 166.736 185.419 168.206C185.922 170.399 185.874 172.189 184.195 174.106C182.855 175.642 178.602 177.507 177.14 176.559C174.646 174.97 178.306 171.41 178.253 169.292C178.19 166.594 177.835 163.91 177.193 161.289C177.098 160.87 177.05 160.425 177.305 160.229C178.443 159.207 180.17 157.539 181.229 156.76Z" fill="#37474F"/>
<path d="M183.099 108.271C181.06 110.681 171.219 122.894 168.655 127.073C166.971 129.817 168.126 133.429 169.058 136.448C170.271 140.479 171.998 145.087 173.009 148.058C174.9 153.598 176.298 156.533 177.818 161.331C178.698 162.247 180.271 161.458 181.139 160.844C181.886 160.314 182.686 158.439 182.591 157.496C182.315 154.763 182.352 154.319 182.003 151.141C181.473 146.067 181.568 138.143 178.12 133.562C183.284 127.836 188.946 123.816 192.712 117.116C188.644 114.923 186.07 104.759 183.099 108.271Z" fill="#FFBDA7"/>
<path d="M194.398 174.996C193.757 175.076 193.726 175.589 193.704 178.089C193.74 180.76 193.577 183.43 193.217 186.076C192.751 188.889 192.259 191.903 194.552 194.392C195.897 195.859 198.106 196.203 199.663 193.83C201.114 191.622 202.031 189.53 201.326 187.019C200.676 184.872 200.302 182.651 200.214 180.409C200.103 176.919 200.299 175.054 199.504 175.06V175.589C199.245 176.05 198.445 176.649 197.036 176.707C195.447 176.77 194.732 176.177 194.499 175.706C194.472 175.467 194.435 175.234 194.398 174.996Z" fill="#37474F"/>
<path d="M183.375 105.972C182.358 107.895 178.878 111.936 174.81 117.492C171.998 121.337 167.067 127.174 166.807 130.039C166.548 132.905 173.465 150.076 173.465 150.076C173.465 150.076 179.233 150.754 181.839 147.846C181.929 143.042 181.309 137.206 178.756 133.811C179.89 132.661 188.094 124.118 189.588 122.333C189.588 122.333 189.344 130.744 189.328 135.511C189.312 140.278 189.858 149.811 190.271 152.862C190.684 155.913 191.24 160.441 191.478 161.866C191.478 161.866 195.043 165.161 200.482 161.755C200.482 161.755 201.012 156.946 200.843 154.822C200.673 152.698 199.947 150.134 199.513 148.302C199.513 148.302 201.632 135.357 202.665 129.621C203.697 123.885 205.657 115.114 200.472 106.698C200.493 106.693 190.689 109.913 183.375 105.972Z" fill="#455A64"/>
<path d="M189.588 122.322C189.588 122.322 186.299 120.236 184.938 117.82C184.938 117.82 185.653 120.691 187.586 122.322L181.76 130.68L189.588 122.322Z" fill="#37474F"/>
<path d="M170.164 70.777C174.242 80.0564 179.761 83.2926 182.346 89.2459C185.608 88.9863 190.089 83.5521 187.616 80.21C184.825 79.0713 175.725 69.4052 175.153 65.2898C174.65 61.6352 172.611 55.9627 172.664 52.9172C172.685 52.4096 172.888 51.9265 173.236 51.556C174.226 50.4649 174.216 49.6016 174.825 48.3781C175.312 47.4459 175.858 47.0911 175.699 46.8845C175.49 46.6656 175.207 46.5336 174.905 46.5149C174.604 46.4962 174.306 46.5923 174.073 46.7839C173.611 47.1216 173.2 47.5249 172.855 47.9809C173.01 46.8423 173.325 45.7313 173.792 44.6812C174.851 42.16 174.586 40.8836 171.213 41.8158C169.094 42.4037 167.786 44.1833 167.532 49.2891C167.41 51.4064 167.423 53.5292 167.569 55.6449C167.987 59.5643 168.432 63.3195 168.956 66.561C169.177 68.0122 169.582 69.4292 170.164 70.777Z" fill="#FFBDA7"/>
<path d="M182.986 103.372C182.695 102.005 182.351 99.4257 182.144 97.5455C178.707 94.3252 179.671 90.8136 180.921 88.2289C183.421 83.0596 185.841 80.1253 188.103 80.21L194.3 80.6708C197.679 81.0681 199.993 81.4547 200.809 81.6295C202.896 82.085 202.832 83.5998 202.928 85.8084C203.185 88.0831 203.108 90.3832 202.7 92.6356L199.85 98.7954L199.596 102.588C199.596 102.588 203.049 109.521 203.674 114.023C201.947 113.524 200.406 112.527 199.241 111.157C199.241 111.157 196.556 115.209 189.893 115.543C183.23 115.877 179.936 109.955 179.936 109.955L182.986 103.372Z" fill="#09DA78"/>
<path opacity="0.1" d="M196.307 95.6546C195.818 96.6007 195.066 97.3852 194.141 97.9134C193.216 98.4415 192.159 98.6908 191.095 98.6313C190.069 98.6081 189.067 98.3143 188.191 97.7795C187.315 97.2447 186.596 96.4879 186.106 95.5858C186.106 95.5858 186.302 99.6535 191.106 99.6058C195.91 99.5582 196.307 95.6546 196.307 95.6546Z" fill="#333333"/>
<path d="M197.847 57.4139C200.114 58.5844 201.274 59.9933 203.143 60.5124C205.013 61.0314 206.522 60.4753 207.91 59.3206C209.499 58.0124 210.251 56.3599 211.898 55.343C213.546 54.3261 215.606 53.6958 217.433 54.3208C219.721 55.0993 220.992 57.5516 221.586 59.8927C222.317 62.8004 222.041 66.0737 220.394 68.6213C217.399 73.1451 212.927 76.4887 207.741 78.0808C201.37 80.0216 194.495 79.4041 188.573 76.3595C186.136 75.1095 185.352 74.0237 183.589 71.9952C181.825 69.9666 181.168 67.4878 181.719 64.204C182.249 61.0632 183.922 59.0399 187.127 57.3609C188.773 56.4659 190.619 56.0014 192.493 56.0107C194.368 56.0199 196.209 56.5026 197.847 57.4139Z" fill="#09DA78"/>
<path opacity="0.5" d="M197.847 57.4139C200.114 58.5844 201.274 59.9933 203.143 60.5124C205.013 61.0314 206.522 60.4753 207.91 59.3206C209.499 58.0124 210.251 56.3599 211.898 55.343C213.546 54.3261 215.606 53.6958 217.433 54.3208C219.721 55.0993 220.992 57.5516 221.586 59.8927C222.317 62.8004 222.041 66.0737 220.394 68.6213C217.399 73.1451 212.927 76.4887 207.741 78.0808C201.37 80.0216 194.495 79.4041 188.573 76.3595C186.136 75.1095 185.352 74.0237 183.589 71.9952C181.825 69.9666 181.168 67.4878 181.719 64.204C182.249 61.0632 183.922 59.0399 187.127 57.3609C188.773 56.4659 190.619 56.0014 192.493 56.0107C194.368 56.0199 196.209 56.5026 197.847 57.4139Z" fill="#333333"/>
<path d="M186.275 61.3757C185.1 62.0325 183.627 64.9085 183.595 71.0206C183.595 76.1953 185.237 77.5141 186.069 77.9061C186.9 78.298 188.532 78.1073 190.115 77.9061L190.041 81.0151C190.041 81.0151 185.566 85.6813 189.183 86.2269C190.989 86.5023 193.304 85.4112 194.872 84.2301C195.881 83.4001 196.609 82.2793 196.959 81.0204L197.086 74.2621C197.086 74.2621 197.991 75.189 199.601 73.8489C200.931 72.742 201.413 70.8352 200.422 69.7812C200.165 69.5305 199.852 69.3445 199.509 69.2385C199.166 69.1325 198.802 69.1096 198.448 69.1717C198.095 69.2338 197.761 69.379 197.474 69.5955C197.187 69.812 196.956 70.0935 196.8 70.4168C196.8 70.4168 195.873 70.4698 194.988 68.7272C193.433 68.8602 191.877 68.4727 190.566 67.6256C189.467 66.9262 188.52 66.0122 187.783 64.9382C187.046 63.8643 186.533 62.6526 186.275 61.3757Z" fill="#FFBDA7"/>
<path d="M190.321 69.5535C190.306 69.7281 190.36 69.9015 190.472 70.0363C190.584 70.1711 190.745 70.2564 190.919 70.2739C191.096 70.2826 191.269 70.2213 191.401 70.1033C191.533 69.9853 191.613 69.8202 191.624 69.6436C191.63 69.558 191.619 69.4721 191.591 69.3908C191.564 69.3095 191.521 69.2344 191.465 69.1697C191.408 69.1051 191.34 69.0521 191.263 69.0139C191.186 68.9757 191.103 68.953 191.017 68.9471C190.932 68.9412 190.846 68.9522 190.764 68.9794C190.683 69.0067 190.608 69.0497 190.543 69.1061C190.479 69.1624 190.426 69.2309 190.387 69.3076C190.349 69.3844 190.327 69.468 190.321 69.5535Z" fill="#333333"/>
<g style="mix-blend-mode:multiply" opacity="0.5">
<g style="mix-blend-mode:multiply" opacity="0.5">
<path d="M189.409 73.8648L187.364 74.4633C187.399 74.599 187.461 74.7265 187.546 74.8382C187.63 74.9499 187.736 75.0437 187.858 75.1142C187.979 75.1846 188.113 75.2303 188.252 75.2486C188.391 75.2669 188.532 75.2574 188.667 75.2207C188.942 75.1349 189.174 74.9455 189.312 74.6926C189.45 74.4396 189.485 74.1428 189.409 73.8648Z" fill="#F0997A"/>
</g>
</g>
<path d="M184.489 67.3872L185.829 66.508C185.776 66.4171 185.705 66.338 185.621 66.2755C185.537 66.213 185.44 66.1684 185.338 66.1446C185.236 66.1208 185.13 66.1182 185.027 66.1369C184.923 66.1557 184.825 66.1955 184.738 66.2538C184.559 66.3747 184.433 66.5598 184.387 66.7708C184.34 66.9817 184.377 67.2024 184.489 67.3872Z" fill="#333333"/>
<path d="M191.293 67.3078L192.776 67.9222C192.824 67.8267 192.851 67.7222 192.857 67.6155C192.862 67.5088 192.845 67.4022 192.806 67.3025C192.768 67.2028 192.709 67.1122 192.634 67.0365C192.558 66.9608 192.468 66.9017 192.368 66.8629C192.166 66.7844 191.942 66.7869 191.742 66.8698C191.541 66.9526 191.381 67.1095 191.293 67.3078Z" fill="#333333"/>
<path d="M184.8 69.2781C184.796 69.4057 184.83 69.5316 184.897 69.6401C184.964 69.7487 185.061 69.8351 185.177 69.8887C185.293 69.9423 185.422 69.9607 185.548 69.9417C185.674 69.9226 185.792 69.8668 185.887 69.7814C185.982 69.6959 186.049 69.5845 186.081 69.4609C186.113 69.3374 186.108 69.2072 186.067 69.0864C186.026 68.9657 185.95 68.8597 185.849 68.7818C185.748 68.7038 185.626 68.6572 185.499 68.6478C185.411 68.6428 185.324 68.6552 185.241 68.6842C185.159 68.7133 185.083 68.7584 185.018 68.8171C184.953 68.8757 184.9 68.9466 184.862 69.0257C184.825 69.1049 184.804 69.1906 184.8 69.2781Z" fill="#333333"/>
<g style="mix-blend-mode:multiply" opacity="0.5">
<g style="mix-blend-mode:multiply" opacity="0.5">
<path d="M187.929 68.9815L187.733 72.8956L185.689 72.2071L187.929 68.9815Z" fill="#F0997A"/>
</g>
</g>
<g style="mix-blend-mode:multiply" opacity="0.5">
<g style="mix-blend-mode:multiply" opacity="0.5">
<path d="M190.117 77.9008C191.791 77.726 195.234 76.8415 195.8 75.4803C195.572 76.161 195.139 76.7547 194.561 77.1805C193.502 78.0332 190.096 78.9389 190.096 78.9389L190.117 77.9008Z" fill="#F0997A"/>
</g>
</g>
<path d="M196.802 70.3904L196.738 73.1075C196.495 73.102 196.256 73.0485 196.033 72.9502C195.81 72.8519 195.61 72.7105 195.442 72.5344C195.274 72.3582 195.143 72.1507 195.055 71.9236C194.968 71.6966 194.926 71.4545 194.932 71.2113L194.991 68.7008L196.802 70.3904Z" fill="#09DA78"/>
<path opacity="0.5" d="M196.802 70.3904L196.738 73.1075C196.495 73.102 196.256 73.0485 196.033 72.9502C195.81 72.8519 195.61 72.7105 195.442 72.5344C195.274 72.3582 195.143 72.1507 195.055 71.9236C194.968 71.6966 194.926 71.4545 194.932 71.2113L194.991 68.7008L196.802 70.3904Z" fill="#333333"/>
<path d="M214.453 71.545C210.602 80.9198 205.835 86.6612 202.726 92.6569C197.43 92.9693 196.948 84.7863 199.337 81.3859C199.337 81.3859 208.542 70.2633 209.358 66.1797C210.078 62.5622 211.677 56.7943 211.545 53.7488C211.516 53.2414 211.301 52.7624 210.941 52.4035C209.93 51.3442 209.919 50.4703 209.257 49.2839C208.727 48.3623 208.198 48.0233 208.346 47.8114C208.549 47.5871 208.83 47.4481 209.132 47.4226C209.434 47.397 209.734 47.4868 209.972 47.6737C210.441 48.0002 210.86 48.3926 211.217 48.839C211.032 47.7057 210.69 46.6039 210.2 45.5657C209.061 43.0711 209.315 41.784 212.71 42.6368C214.829 43.1664 216.19 44.9249 216.571 50.0201C216.744 52.1341 216.781 54.2571 216.683 56.3759C216.365 60.3059 216.005 64.0664 215.565 67.3237C215.375 68.7723 215.001 70.1908 214.453 71.545Z" fill="#FFBDA7"/>
<path d="M108.924 182.364C109.311 183.391 109.888 184.413 111.043 184.795C113.416 185.584 116.498 183.545 117.775 182.025C119.321 180.181 119.555 178.216 120.688 176.686C121.821 175.155 123.421 174.186 124.194 172.862C124.513 172.367 124.701 171.799 124.74 171.212C124.78 170.625 124.671 170.037 124.422 169.504C124.058 168.84 123.505 168.3 122.833 167.952C122.658 167.846 122.351 167.835 122.16 167.729L108.924 182.364Z" fill="#333333"/>
<path d="M113.852 172.708C113.688 173.66 113.315 174.564 112.761 175.356C111.776 176.67 110.51 177.639 109.35 178.778C108.933 179.114 108.593 179.537 108.355 180.017C107.867 181.288 108.439 182.316 109.335 183.306C109.725 183.663 110.196 183.921 110.706 184.058C111.459 184.265 112.253 184.265 113.005 184.058C114.455 183.561 115.752 182.699 116.771 181.553C118.778 179.308 118.651 176.357 121.045 174.387C123.439 172.417 125.049 170.314 122.608 167.772C121.421 166.532 120.097 166.003 119.742 165.558C119.107 164.769 117.624 166.151 117.152 166.554C116.681 166.956 116.225 167.433 115.743 167.856C115.299 168.356 114.892 168.887 114.525 169.445C114.373 169.601 114.246 169.78 114.149 169.975C114.066 170.235 114.033 170.508 114.054 170.78C114.051 171.428 113.984 172.074 113.852 172.708Z" fill="#37474F"/>
<path d="M116.809 181.537C117.088 181.243 117.34 180.924 117.561 180.584C117.184 179.449 116.438 178.472 115.443 177.809C114.825 177.389 114.126 177.106 113.391 176.978C112.655 176.851 111.901 176.881 111.179 177.067C110.445 177.518 109.752 178.032 109.108 178.603C108.687 178.967 108.367 179.434 108.181 179.959C108.015 180.577 108.04 181.231 108.251 181.835C108.463 182.438 108.852 182.964 109.367 183.343C109.739 183.687 110.194 183.928 110.686 184.043C111.44 184.249 112.236 184.249 112.99 184.043C114.445 183.525 115.755 182.666 116.809 181.537Z" fill="#333333"/>
<path d="M118.064 161.543L119.494 165.923C119.494 165.923 120.59 167.359 118.864 169.022C117.137 170.685 115.204 170.611 114.372 169.599L111.909 164.949L118.064 161.543Z" fill="#B16668"/>
<path d="M154.075 152.687C154.705 152.984 156.368 153.095 157.284 152.47C159.196 151.167 159.604 147.327 159.006 145.203C158.275 142.629 156.845 141.326 156.357 139.78C155.87 138.233 156.003 136.019 155.356 134.669C155.094 134.145 154.721 133.685 154.264 133.319C153.807 132.954 153.276 132.691 152.708 132.55C152.348 132.452 151.97 132.436 151.603 132.505C151.236 132.574 150.89 132.725 150.59 132.947L150.012 133.371L154.075 152.687Z" fill="#333333"/>
<path d="M149.213 142.963C149.891 143.664 150.39 144.518 150.669 145.452C151.156 146.988 151.199 148.63 151.405 150.219C151.449 150.751 151.587 151.271 151.813 151.755C152.396 152.873 153.725 153.079 155.049 152.91C155.577 152.795 156.072 152.562 156.495 152.227C157.107 151.745 157.575 151.103 157.846 150.373C158.3 148.896 158.37 147.328 158.047 145.818C157.565 142.947 154.679 141.051 154.716 138.223C154.753 135.394 153.095 131.734 149.536 133.609C147.767 134.595 146.16 135.845 144.769 137.317C145.616 138.588 146.485 139.854 147.316 141.136C147.478 141.46 147.683 141.761 147.926 142.031C148.291 142.354 148.768 142.529 149.133 142.878L149.213 142.963Z" fill="#37474F"/>
<path d="M158.047 145.865C157.977 145.47 157.865 145.083 157.714 144.711C156.592 144.318 155.369 144.329 154.255 144.743C153.532 144.968 152.873 145.36 152.33 145.887C151.787 146.414 151.376 147.062 151.13 147.777C151.056 148.636 151.056 149.499 151.13 150.357C151.185 150.91 151.366 151.443 151.66 151.914C152.438 153.042 153.694 153.127 155.018 152.973C155.545 152.858 156.04 152.624 156.464 152.29C157.075 151.807 157.542 151.166 157.814 150.436C158.282 148.958 158.362 147.384 158.047 145.865Z" fill="#333333"/>
<path d="M145.575 135.58L147.815 135.484C148.395 135.743 148.904 136.136 149.302 136.631C149.7 137.125 149.974 137.707 150.104 138.328C150.207 138.967 150.176 139.62 150.014 140.247C149.851 140.873 149.561 141.459 149.161 141.967L145.453 142.454L145.564 135.728" fill="#B16668"/>
<path d="M145.744 135.294L130.273 135.447C130.273 135.447 133.08 114.69 132.153 102.54L107.323 99.6853L107.249 99.8389C103.176 110.681 98.875 124.822 96.5339 135.479C95.8136 138.763 96.1843 139.658 98.7373 144.483C102.323 151.252 108.425 160.309 112.794 167.184C116.247 166.877 118.091 165.828 118.885 162.973C116.173 156.654 113.88 143.021 107.762 137.237C111.179 131.146 114.383 124.15 117.646 117.429C117.746 121.708 118.175 135.739 119.664 141.517C120.585 145.145 122.598 147.311 126.613 146.671C132.206 145.775 146.983 142.465 146.983 142.465C149.949 142.041 149.208 136.496 145.744 135.294Z" fill="#09DA78"/>
<path opacity="0.2" d="M145.744 135.294L130.273 135.447C130.273 135.447 133.08 114.69 132.153 102.54L107.323 99.6853L107.249 99.8389C103.176 110.681 98.875 124.822 96.5339 135.479C95.8136 138.763 96.1843 139.658 98.7373 144.483C102.323 151.252 108.425 160.309 112.794 167.184C116.247 166.877 118.091 165.828 118.885 162.973C116.173 156.654 113.88 143.021 107.762 137.237C111.179 131.146 114.383 124.15 117.646 117.429C117.746 121.708 118.175 135.739 119.664 141.517C120.585 145.145 122.598 147.311 126.613 146.671C132.206 145.775 146.983 142.465 146.983 142.465C149.949 142.041 149.208 136.496 145.744 135.294Z" fill="#333333"/>
<path opacity="0.2" d="M130.289 135.447C130.289 135.447 130.501 138.249 129.304 140.341C130.152 139.547 130.809 138.571 131.226 137.486C131.862 135.76 136.82 136.168 140.527 135.368L130.289 135.447Z" fill="#333333"/>
<path opacity="0.2" d="M117.64 117.439L117.397 113.53C115.279 112.317 113.399 110.731 111.846 108.848C113.044 110.754 114.535 112.459 116.263 113.901L116.634 116.666L111.232 130.723L117.64 117.439Z" fill="#333333"/>
<path opacity="0.2" d="M107.768 137.222C107.435 137.708 107.012 138.126 106.523 138.456C107.969 139.248 109.244 140.319 110.273 141.607C111.392 143.128 112.411 144.721 113.324 146.374C111.846 142.762 110.093 139.435 107.768 137.222Z" fill="#333333"/>
<path d="M98.4127 58.2456C99.1754 60.2106 108.593 74.1351 110.854 77.4666C117.284 74.723 113.005 67.1649 113.005 67.1649C113.005 67.1649 106.246 56.2276 105.15 54.3844C104.892 53.9144 104.729 53.3977 104.673 52.8643C104.535 51.8898 104.059 39.9303 104.641 36.3181C104.75 35.6767 105.092 35.0979 105.6 34.6921C106.951 33.5957 107.422 32.5735 108.381 31.2917C109.128 30.2801 109.837 29.9623 109.684 29.7028C109.478 29.4071 109.169 29.2001 108.817 29.1235C108.465 29.0468 108.097 29.1062 107.787 29.2897C107.089 29.6718 106.438 30.1358 105.849 30.672C106.19 29.2841 106.753 27.9605 107.517 26.7526C109.255 23.9773 109.154 22.4254 105.007 22.9074C102.406 23.2093 99.8745 25.2219 98.651 31.1911C98.2962 32.9072 98.2167 35.4971 98.0843 37.7217C97.7983 42.7745 97.6076 50.7722 97.703 54.2732C97.7347 56.0316 97.6553 56.2859 98.4127 58.2456Z" fill="#B16668"/>
<path d="M117.08 65.7189C114.85 65.3905 107.546 57.3981 107.546 57.3981C105.507 57.2816 100.507 62.5092 101.498 64.6384C104.469 69.5853 108.245 74.1721 109.273 77.35C110.126 79.1402 112.408 77.6201 113.393 73.8543C114.776 68.6479 118.891 66.0049 117.08 65.7189Z" fill="#09DA78"/>
<path opacity="0.3" d="M117.08 65.7189C114.85 65.3905 107.546 57.3981 107.546 57.3981C105.507 57.2816 100.507 62.5092 101.498 64.6384C104.469 69.5853 108.245 74.1721 109.273 77.35C110.126 79.1402 112.408 77.6201 113.393 73.8543C114.776 68.6479 118.891 66.0049 117.08 65.7189Z" fill="#333333"/>
<path d="M133.609 75.1625L133.079 84.6539L132.502 104.839C125.177 108.266 114.361 106.2 107.004 100.273C107.004 100.273 107.423 77.0428 108.938 71.6722C110.452 66.3015 113.175 65.2369 116.962 65.3534C120.961 65.4805 126.098 66.042 126.098 66.042L130.473 67.2072C130.473 67.2072 133.699 73.2611 133.609 75.1625Z" fill="#455A64"/>
<path d="M136.708 59.5326C137.206 59.2784 139.499 60.4224 140.898 62.398C142.296 64.3736 142.391 67.1648 141.957 67.6945C141.523 68.2241 135.893 65.7189 135.893 65.7189L136.708 59.5326Z" fill="#09DA78"/>
<path opacity="0.6" d="M136.708 59.5326C137.206 59.2784 139.499 60.4224 140.898 62.398C142.296 64.3736 142.391 67.1648 141.957 67.6945C141.523 68.2241 135.893 65.7189 135.893 65.7189L136.708 59.5326Z" fill="#333333"/>
<path d="M145.946 61.0209C145.008 62.9065 134.32 75.8776 131.751 78.9866C125.612 75.6498 130.586 68.5313 130.586 68.5313C130.586 68.5313 138.329 58.3038 139.601 56.5454C139.903 56.102 140.115 55.6035 140.226 55.0782C140.448 54.1143 142.053 42.2554 141.814 38.6061C141.766 37.9589 141.481 37.3519 141.015 36.9007C139.775 35.6772 139.399 34.6232 138.568 33.2461C137.916 32.1868 137.244 31.7896 137.418 31.53C137.651 31.2557 137.979 31.0793 138.337 31.0361C138.694 30.9929 139.055 31.0861 139.346 31.297C140.007 31.7433 140.612 32.2679 141.147 32.8595C140.936 31.4444 140.498 30.0726 139.849 28.797C138.382 25.8734 138.631 24.3321 142.715 25.2007C145.273 25.7304 147.609 27.9973 148.281 34.0512C148.472 35.7937 148.308 38.3784 148.229 40.6029C148.038 45.6664 147.476 53.6429 147.053 57.1227C146.83 58.8811 146.889 59.1407 145.946 61.0209Z" fill="#B16668"/>
<path d="M129.012 66.9212L136.708 59.5061C136.708 59.5061 136.014 65.8619 141.947 67.6786L133.107 78.8595C132.084 80.565 129.283 78.3298 128.658 74.5058C127.784 69.1775 129.012 66.9212 129.012 66.9212Z" fill="#09DA78"/>
<path opacity="0.3" d="M129.012 66.9212L136.708 59.5061C136.708 59.5061 136.014 65.8619 141.947 67.6786L133.107 78.8595C132.084 80.565 129.283 78.3298 128.658 74.5058C127.784 69.1775 129.012 66.9212 129.012 66.9212Z" fill="#333333"/>
<path d="M124.924 49.0403C124.862 50.3936 124.399 51.698 123.596 52.7886C122.792 53.8792 121.683 54.7068 120.409 55.1669C119.134 55.627 117.752 55.6988 116.437 55.3732C115.122 55.0477 113.933 54.3394 113.021 53.338C112.108 52.3366 111.513 51.0871 111.311 49.7475C111.109 48.4079 111.309 47.0385 111.885 45.8124C112.461 44.5863 113.388 43.5587 114.549 42.8596C115.709 42.1604 117.051 41.8212 118.404 41.8847C120.217 41.9712 121.921 42.7731 123.143 44.1145C124.366 45.4559 125.006 47.2274 124.924 49.0403Z" fill="#333333"/>
<path d="M129.679 54.1408C129.679 54.1408 128.323 59.2943 127.841 60.1311C127.523 60.6542 127.014 61.0338 126.422 61.1904L126.676 57.5252L129.679 54.1408Z" fill="#333333"/>
<path d="M128.642 46.6091C129.031 46.5822 129.422 46.6445 129.783 46.7914C130.145 46.9383 130.468 47.1658 130.729 47.4566C131.597 48.4364 130.951 51.3336 129.669 54.1408L127.551 54.2785L128.642 46.6091Z" fill="#333333"/>
<path d="M126.953 54.252C127.361 54.5221 128.012 53.7488 128.542 53.2298C129.071 52.7107 130.809 52.0539 131.566 53.8654C132.323 55.6768 130.623 58.0231 129.278 58.378C126.953 58.9871 126.683 57.504 126.683 57.504L126.111 65.9784C123.097 69.49 115.216 68.8068 118.696 65.1522L118.817 62.6416C117.791 62.7513 116.756 62.7513 115.73 62.6416C114.056 62.3027 113.081 60.9203 112.636 59.0771C111.953 56.1164 111.757 53.7382 112.721 48.018C113.78 41.747 121.121 42.0277 124.961 44.7077C128.801 47.3877 126.953 54.252 126.953 54.252Z" fill="#B16668"/>
<path d="M126.919 54.9564C127.131 54.9564 127.978 53.68 128.535 53.2298C129.292 52.6048 128.64 46.6092 128.64 46.6092C128.913 46.0968 129.025 45.5144 128.963 44.9373C128.901 44.3603 128.667 43.8153 128.291 43.373C127.353 42.2395 126.035 40.8413 121.522 41.1591C118.302 41.3868 114.769 42.2184 112.02 40.7089C111.713 41.6138 111.686 42.59 111.941 43.5109C112.196 44.4317 112.722 45.2546 113.45 45.8729C113.45 45.8729 114.435 46.5827 117.099 47.0329C119.559 47.3313 122.042 47.4022 124.514 47.2447C125.293 47.1706 125.425 47.9333 125.749 50.0095C126.05 51.8368 126.209 54.9088 126.919 54.9564Z" fill="#333333"/>
<path d="M128.615 47.0752L131.21 45.8306C131.137 45.6564 131.03 45.4988 130.895 45.3674C130.759 45.2359 130.598 45.1334 130.422 45.0661C130.246 44.9987 130.057 44.9679 129.869 44.9755C129.68 44.9831 129.495 45.0289 129.325 45.1102C128.975 45.282 128.705 45.5829 128.573 45.9494C128.441 46.316 128.456 46.7196 128.615 47.0752Z" fill="#333333"/>
<path d="M118.801 62.6681C118.801 62.6681 122.593 62.0908 123.939 61.4552C124.729 61.0874 125.391 60.4916 125.84 59.7444C125.606 60.5042 125.22 61.2086 124.707 61.8154C123.69 62.9965 118.759 63.6691 118.759 63.6691L118.801 62.6681Z" fill="#9A4A4D"/>
<path d="M120.161 53.0073C120.159 53.1562 120.201 53.3023 120.282 53.4274C120.363 53.5526 120.478 53.6512 120.615 53.7109C120.751 53.7707 120.902 53.7889 121.049 53.7634C121.195 53.7379 121.331 53.6697 121.439 53.5674C121.547 53.465 121.623 53.3331 121.657 53.1881C121.69 53.0431 121.68 52.8913 121.628 52.7519C121.576 52.6125 121.484 52.4915 121.363 52.4041C121.243 52.3167 121.099 52.2668 120.951 52.2605C120.85 52.2577 120.749 52.2748 120.655 52.3108C120.561 52.3468 120.475 52.401 120.401 52.4704C120.328 52.5397 120.269 52.6228 120.228 52.715C120.187 52.8071 120.164 52.9064 120.161 53.0073Z" fill="#333333"/>
<path d="M121.092 50.1896L122.681 51.1536C122.807 50.9379 122.845 50.6821 122.786 50.4394C122.728 50.1967 122.579 49.9858 122.369 49.8506C122.264 49.7844 122.147 49.7405 122.024 49.7217C121.901 49.7029 121.776 49.7096 121.656 49.7415C121.537 49.7733 121.425 49.8295 121.328 49.9066C121.23 49.9837 121.15 50.0801 121.092 50.1896Z" fill="#333333"/>
<path d="M119.356 58.1661L117.609 58.7275C117.639 58.8439 117.693 58.9529 117.766 59.0481C117.839 59.1434 117.931 59.223 118.036 59.2823C118.14 59.3415 118.256 59.3792 118.375 59.3931C118.495 59.407 118.616 59.3968 118.731 59.3631C118.972 59.2864 119.173 59.1175 119.29 58.8933C119.407 58.6691 119.431 58.4077 119.356 58.1661Z" fill="#9A4A4D"/>
<path d="M113.555 50.4597L115.075 49.4004C115.011 49.2977 114.927 49.2091 114.828 49.1399C114.729 49.0708 114.616 49.0226 114.498 48.9983C114.38 48.974 114.257 48.9742 114.139 48.9987C114.021 49.0232 113.908 49.0716 113.809 49.1409C113.607 49.287 113.468 49.5048 113.421 49.7499C113.373 49.995 113.421 50.2489 113.555 50.4597Z" fill="#333333"/>
<path d="M113.912 52.4777C113.9 52.5811 113.91 52.6858 113.94 52.7853C113.971 52.8849 114.021 52.9771 114.089 53.0562C114.156 53.1353 114.24 53.1997 114.333 53.2452C114.427 53.2907 114.529 53.3165 114.633 53.3209C114.737 53.3252 114.841 53.3081 114.938 53.2706C115.035 53.2331 115.123 53.176 115.197 53.1029C115.271 53.0297 115.329 52.9421 115.368 52.8455C115.407 52.7488 115.425 52.6453 115.422 52.5412C115.434 52.4378 115.424 52.3331 115.394 52.2336C115.363 52.134 115.313 52.0418 115.245 51.9627C115.177 51.8836 115.094 51.8193 115.001 51.7737C114.907 51.7282 114.805 51.7024 114.701 51.6981C114.597 51.6937 114.493 51.7108 114.396 51.7483C114.299 51.7858 114.211 51.8429 114.137 51.9161C114.063 51.9892 114.005 52.0768 113.966 52.1735C113.927 52.2701 113.909 52.3737 113.912 52.4777Z" fill="#333333"/>
<path d="M117.783 51.948L117.322 56.4659L114.997 55.5443L117.783 51.948Z" fill="#9A4A4D"/>
<path d="M68.2788 181.151L68.4906 180.414C68.5277 181.363 68.7925 185.467 70.2861 187.925C71.4779 189.874 73.1939 192.231 73.2734 194.042C73.3528 195.854 69.5287 195.435 68.0881 194.726C66.4197 193.899 64.4335 192.236 63.639 190.351C63.0776 189.027 62.8975 187.597 62.5162 186.574C62.1348 185.552 60.9802 184.191 60.9272 183.116C60.9008 182.528 61.4569 181.421 61.9865 180.505C62.5162 179.588 63.1782 178.698 63.4643 178.873C63.4325 178.984 63.1624 179.477 63.1624 179.477C63.4113 180.007 64.3276 180.711 65.4769 181.092C66.2449 181.341 68.1146 181.712 68.2788 181.151Z" fill="#333333"/>
<path d="M34.0616 167.067L34.5912 166.903C34.0616 167.687 32.0066 171.453 31.7576 174.318C31.5564 176.596 31.5405 179.509 30.5288 181.013C29.5172 182.517 26.6836 179.911 25.9527 178.487C25.0946 176.834 24.4855 174.313 24.9622 172.327C25.3012 170.928 26.0215 169.678 26.3022 168.619C26.5829 167.56 26.4823 165.791 27.0755 164.912C27.4039 164.419 28.5109 163.852 29.496 163.45C30.4017 163.074 31.5299 162.703 31.657 163.015C31.5669 163.084 31.0532 163.317 31.0532 163.317C30.9473 163.889 31.2597 165.007 31.9589 165.997C32.5058 166.599 33.2536 166.979 34.0616 167.067Z" fill="#333333"/>
<path d="M81.1252 148.932C81.6548 147.306 82.9842 143.853 82.7141 142.163C81.5542 134.266 78.9801 125.257 78.1168 122.413C76.9568 118.599 75.6009 112.974 74.1391 106.523C74.1762 104.728 74.1921 103.128 74.1921 103.128L57.2433 104.59C55.2889 109.357 52.1851 117.55 53.3609 127.894C53.9046 132.722 54.1769 137.576 54.1766 142.433C52.5877 143.418 50.8239 144.552 49.4098 145.532C45.6281 148.18 32.3762 162.168 32.3762 162.168L31.0097 163.259L30.9038 163.339V163.37C30.1729 164.25 29.3149 167.999 28.621 170.256C28.1602 171.786 27.9325 174.202 28.9971 176.082C30.0034 177.846 31.1157 178.28 31.55 176.315C31.6082 175.611 31.6506 174.917 31.7089 174.271C31.8837 172.268 33.0224 169.975 33.8751 168.508C34.569 167.316 35.0298 166.315 36.3327 165.473C36.3327 165.473 52.1745 155.134 59.7909 150.272C61.0463 149.49 62.1294 148.461 62.9744 147.247C63.8194 146.034 64.4086 144.661 64.706 143.212C65.2357 140.468 67.1159 133.715 67.7568 130.315L71.4644 144.441C70.6222 145.807 69.0545 150.664 68.1276 156.623C66.8882 164.567 63.9592 176.712 63.9592 176.712L63.2124 179.488L63.1753 179.615C63.1118 180.753 64.6425 184.286 65.4422 186.527C65.9719 188.031 67.2219 190.112 69.1816 190.981C71.0406 191.802 72.2059 191.479 71.3796 189.646C71.0261 189.041 70.7129 188.413 70.4421 187.766C69.5928 185.928 69.0147 183.976 68.7261 181.972C68.5639 180.631 68.7462 179.271 69.2557 178.02C69.2557 178.02 78.3127 157.629 81.1252 148.932Z" fill="#FFA8A7"/>
<path d="M56.2984 107.111C56.2984 107.111 52.9881 112.095 52.3207 116.3C51.1767 123.461 52.7391 134.896 52.7391 134.896C52.7391 134.896 54.9425 133.615 55.255 131.189C55.255 131.189 56.166 133.376 57.8344 134.478C59.9265 135.871 63.1309 136.66 67.1827 135.437L67.7494 130.31L68.5492 134.626C71.1757 134.874 73.8242 134.526 76.298 133.609C80.2544 132.095 81.1337 127.72 81.1337 127.72L74.28 107.106C74.28 107.106 74.6666 110.533 66.4994 110.85C58.3322 111.168 56.2984 107.111 56.2984 107.111Z" fill="#455A64"/>
<path d="M85.9591 73.2028C81.9973 82.5246 76.5155 85.8297 74.0208 91.8147C70.7529 91.5922 66.2138 86.211 68.6449 82.8424C71.4202 81.6719 80.4084 71.8946 80.9274 67.7739C81.3882 64.114 83.3585 58.415 83.2685 55.3695C83.2404 54.8635 83.0318 54.3843 82.6806 54.0189C81.6795 52.9596 81.6743 52.0698 81.0334 50.8781C80.5302 49.9512 79.9741 49.6016 80.1383 49.3951C80.3438 49.1731 80.6257 49.0371 80.9273 49.0145C81.229 48.9919 81.528 49.0843 81.7643 49.2732C82.2286 49.6096 82.644 50.0089 82.9984 50.4597C82.8269 49.3229 82.4971 48.2158 82.0185 47.1705C80.9063 44.66 81.1764 43.3835 84.5661 44.2734C86.6847 44.8348 88.0194 46.6038 88.3372 51.6884C88.4827 53.8042 88.4951 55.927 88.3743 58.0442C88.0036 61.9689 87.601 65.7242 87.119 68.9762C86.9157 70.4291 86.5259 71.8497 85.9591 73.2028Z" fill="#FFA8A7"/>
<path d="M56.8858 105.363L56.584 101.571L53.6603 95.4481C53.2296 93.1991 53.1261 90.8996 53.3531 88.6209C53.4484 86.4123 53.3531 84.9134 55.4717 84.4208C56.2873 84.2354 58.5966 83.8223 61.9758 83.3615L68.1621 82.8319C70.4237 82.7153 72.876 85.6231 75.4395 90.7766C76.7212 93.3507 77.7276 96.8517 74.3272 100.109C74.3272 100.782 74.412 103.054 74.3272 104.415C71.6466 105.78 68.7103 106.569 65.7067 106.732C62.7031 106.896 59.6986 106.429 56.8858 105.363Z" fill="#09DA78"/>
<path d="M73.1079 66.4922V66.3015C72.5518 60.3641 69.1461 59.2624 62.9227 59.898C58.3254 60.3694 54.157 62.5463 52.7694 66.5981C52.2565 68.1213 52.1016 69.7421 52.3165 71.3349C52.5314 72.9276 53.1105 74.4494 54.0087 75.7822C55.9102 78.5999 59.1252 80.173 63.6695 79.7493C69.591 80.4431 73.664 72.4242 73.1079 66.4922Z" fill="#333333"/>
<path d="M33.9869 73.134C32.9224 72.3178 32.0658 71.2616 31.487 70.0514C30.5548 68.1076 30.1258 65.131 32.2974 63.8015C32.5438 63.6433 32.8225 63.5419 33.113 63.5049C34.077 63.4096 34.8503 64.22 35.6024 64.8238C36.3321 65.3932 37.1675 65.8124 38.0603 66.0569C38.953 66.3015 39.8854 66.3666 40.8035 66.2485C42.795 65.9943 44.5746 64.8873 46.1371 63.632C46.6171 63.2096 47.1515 62.8533 47.726 62.5727C48.2009 62.3769 48.7064 62.2657 49.2197 62.2444C50.924 62.1602 52.6058 62.6611 53.9865 63.6638C54.2471 63.8135 54.4751 64.0139 54.6571 64.2532C54.839 64.4924 54.9712 64.7657 55.0458 65.0568C55.0766 65.2622 55.0463 65.4721 54.9587 65.6605C54.8712 65.8488 54.7301 66.0073 54.5532 66.1161C54.1507 66.3438 53.6263 66.1161 53.2026 66.0684C52.1397 65.9183 51.0577 66.147 50.1465 66.7146C49.2779 67.3078 48.7324 68.2612 48.1498 69.1351C46.3066 71.8946 43.5842 74.2886 40.3057 74.7653C39.1969 74.9245 38.0676 74.8622 36.983 74.5822C35.8984 74.3022 34.8801 73.81 33.9869 73.134Z" fill="#333333"/>
<path d="M69.0258 63.6744C70.2439 64.2464 71.9388 67.0112 72.3678 73.1075C72.728 78.2715 71.1814 79.7016 70.3764 80.1465C69.5713 80.5914 67.9294 80.5173 66.3351 80.406L66.6211 83.4992C66.6211 83.4992 71.388 87.8423 67.8393 88.6368C66.0597 89.0393 63.6763 88.1071 62.0132 87.0478C60.9486 86.2887 60.144 85.2196 59.7092 83.9865L59.116 77.2546C59.116 77.2546 58.2739 78.2398 56.579 77.0163C55.1754 76.0046 54.561 74.135 55.4773 73.0121C55.7165 72.7448 56.0156 72.5381 56.3502 72.4089C56.6848 72.2797 57.0453 72.2317 57.4021 72.2689C57.7588 72.3062 58.1016 72.4275 58.4023 72.623C58.7031 72.8185 58.9531 73.0826 59.1319 73.3935C59.1319 73.3935 60.0641 73.3935 60.8268 71.5821C62.3868 71.6085 63.9111 71.1146 65.1593 70.1785C66.2089 69.411 67.0925 68.4392 67.757 67.3214C68.4214 66.2037 68.853 64.9632 69.0258 63.6744Z" fill="#FFA8A7"/>
<path d="M65.5554 72.1065C65.5848 72.2777 65.5457 72.4536 65.4467 72.5962C65.3476 72.7389 65.1964 72.8369 65.0257 72.8692C64.8512 72.8888 64.676 72.8394 64.5374 72.7315C64.3989 72.6236 64.308 72.4658 64.2842 72.2919C64.266 72.2047 64.2658 72.1148 64.2837 72.0276C64.3015 71.9404 64.3371 71.8577 64.3881 71.7848C64.4392 71.7119 64.5047 71.6502 64.5805 71.6035C64.6563 71.5569 64.7409 71.5263 64.829 71.5136C64.9171 71.5009 65.0069 71.5064 65.0928 71.5297C65.1787 71.5531 65.2589 71.5938 65.3284 71.6494C65.398 71.7049 65.4554 71.7742 65.4972 71.8528C65.539 71.9314 65.5642 72.0177 65.5713 72.1065H65.5554Z" fill="#333333"/>
<g style="mix-blend-mode:multiply" opacity="0.5">
<g style="mix-blend-mode:multiply" opacity="0.5">
<path d="M66.7609 76.3437L68.8424 76.8045C68.817 76.9422 68.7646 77.0735 68.6881 77.1908C68.6116 77.3081 68.5126 77.4091 68.3969 77.4879C68.2811 77.5667 68.1509 77.6218 68.0137 77.6499C67.8766 77.6781 67.7352 77.6788 67.5978 77.6519C67.3159 77.5849 67.0711 77.411 66.915 77.1669C66.7588 76.9228 66.7036 76.6277 66.7609 76.3437Z" fill="#F28F8F"/>
</g>
</g>
<path d="M71.229 69.543L69.8307 68.7591C69.8776 68.6669 69.9425 68.5851 70.0215 68.5184C70.1006 68.4518 70.1922 68.4017 70.291 68.3711C70.3897 68.3405 70.4936 68.33 70.5965 68.3402C70.6994 68.3504 70.7992 68.3812 70.89 68.4307C71.0796 68.536 71.221 68.7108 71.2842 68.9183C71.3474 69.1258 71.3276 69.3498 71.229 69.543Z" fill="#333333"/>
<path d="M64.4429 69.9138L63.0023 70.6288C62.953 70.5377 62.9225 70.4376 62.9126 70.3345C62.9028 70.2313 62.9137 70.1273 62.9448 70.0285C62.976 69.9297 63.0266 69.8381 63.0938 69.7593C63.161 69.6804 63.2433 69.6159 63.336 69.5695C63.5297 69.4755 63.7519 69.4588 63.9575 69.5227C64.1631 69.5867 64.3367 69.7265 64.4429 69.9138Z" fill="#333333"/>
<path d="M71.0617 71.4497C71.0749 71.5767 71.0505 71.7048 70.9915 71.8181C70.9325 71.9314 70.8414 72.0248 70.7297 72.0868C70.6181 72.1487 70.4906 72.1765 70.3633 72.1666C70.2359 72.1567 70.1143 72.1096 70.0135 72.0311C69.9127 71.9526 69.8372 71.8463 69.7964 71.7253C69.7556 71.6042 69.7513 71.4739 69.784 71.3504C69.8166 71.2269 69.8849 71.1158 69.9802 71.0308C70.0756 70.9458 70.1938 70.8907 70.3202 70.8724C70.495 70.8514 70.6709 70.9002 70.8098 71.0084C70.9487 71.1165 71.0392 71.2751 71.0617 71.4497Z" fill="#333333"/>
<g style="mix-blend-mode:multiply" opacity="0.5">
<g style="mix-blend-mode:multiply" opacity="0.5">
<path d="M67.9013 71.3702L68.3674 75.2632L70.3642 74.4369L67.9013 71.3702Z" fill="#F28F8F"/>
</g>
</g>
<g style="mix-blend-mode:multiply" opacity="0.5">
<g style="mix-blend-mode:multiply" opacity="0.5">
<path d="M66.3315 80.4061C64.6525 80.3425 61.1515 79.6805 60.5054 78.3828C60.7845 79.0385 61.2577 79.5929 61.8613 79.9718C62.9629 80.745 66.4374 81.4124 66.4374 81.4124L66.3315 80.4061Z" fill="#F28F8F"/>
</g>
</g>
<path d="M54.045 63.8916L54.8077 61.1056C54.9934 61.1464 55.1689 61.2244 55.3236 61.3348C55.4784 61.4453 55.6092 61.5859 55.7082 61.7482C55.8071 61.9105 55.8722 62.0911 55.8995 62.2793C55.9268 62.4674 55.9158 62.6591 55.867 62.8429C55.7569 63.2187 55.506 63.5376 55.1666 63.733C54.8271 63.9283 54.4254 63.9852 54.045 63.8916Z" fill="#333333"/>
<path d="M53.8003 64.1299L52.2113 61.7253C52.3639 61.6132 52.5377 61.5331 52.7221 61.4899C52.9065 61.4467 53.0977 61.4413 53.2843 61.4739C53.4709 61.5066 53.6489 61.5767 53.8076 61.68C53.9664 61.7832 54.1026 61.9176 54.2081 62.0749C54.4167 62.4044 54.4907 62.8014 54.4147 63.1839C54.3388 63.5664 54.1188 63.9051 53.8003 64.1299Z" fill="#333333"/>
<path d="M59.1451 73.3882L59.3993 76.1001C59.6417 76.0775 59.8773 76.0073 60.0926 75.8937C60.3079 75.78 60.4987 75.6251 60.6541 75.4377C60.8095 75.2503 60.9265 75.0342 60.9984 74.8016C61.0703 74.569 61.0956 74.3245 61.073 74.0821L60.84 71.5768L59.1451 73.3882Z" fill="#333333"/>
<path d="M41.6845 74.4793C45.6463 83.8064 50.4819 89.4895 53.6598 95.4481C58.9563 95.697 59.3483 87.5034 56.9172 84.1348C56.9172 84.1348 47.5795 73.1181 46.7161 69.0557C45.9482 65.4435 44.2851 59.6915 44.3751 56.646C44.3989 56.1389 44.6081 55.6583 44.963 55.2954C45.964 54.2361 45.964 53.3516 46.6102 52.1598C47.1081 51.2277 47.6695 50.8834 47.5053 50.6715C47.2969 50.4521 47.0141 50.3185 46.7123 50.297C46.4104 50.2754 46.1114 50.3674 45.874 50.555C45.4114 50.8896 44.9978 51.2871 44.6452 51.7361C44.8138 50.5994 45.1419 49.4921 45.6198 48.447C46.732 45.9418 46.4619 44.66 43.0775 45.5551C40.9589 46.0848 39.6241 47.8803 39.3063 52.9702C39.1617 55.0985 39.1546 57.2339 39.2852 59.3631C39.6506 63.2878 40.0532 67.0483 40.5351 70.295C40.7398 71.7328 41.126 73.1387 41.6845 74.4793Z" fill="#FFA8A7"/>
<path d="M68.5464 134.483L67.7466 130.532L68.5676 123C70.3036 122.269 71.9378 121.317 73.4298 120.167C72.5098 121.478 71.387 122.635 70.1036 123.594L68.2763 130.071L68.5464 134.483Z" fill="#37474F"/>
<path opacity="0.1" d="M60.1144 98.393C60.6159 99.3324 61.378 100.107 62.3091 100.624C63.2402 101.141 64.3008 101.377 65.3633 101.306C66.3895 101.27 67.388 100.964 68.2577 100.418C69.1273 99.8718 69.8372 99.1057 70.3155 98.197C70.3155 98.197 70.1672 102.265 65.3633 102.275C60.5593 102.286 60.1144 98.393 60.1144 98.393Z" fill="#333333"/>
</svg>
