<svg width="808" height="200" viewBox="0 0 808 200" fill="none" xmlns="http://www.w3.org/2000/svg">
<mask id="mask0_7_4" style="mask-type:alpha" maskUnits="userSpaceOnUse" x="0" y="0" width="200" height="200">
<path d="M0 0H200V200H0V0Z" fill="#C4C4C4"/>
</mask>
<g mask="url(#mask0_7_4)">
<path fill-rule="evenodd" clip-rule="evenodd" d="M118.654 56.8384L99.2921 37.476L80.7142 56.0539L118.654 93.9942L156.595 56.0539L138.017 37.476L118.654 56.8384ZM43.2325 56.0539L118.654 131.476L194.076 56.0539L138.017 -0.00567865L118.654 19.3567L99.2921 -0.00567595L43.2325 56.0539Z" fill="#BD00B3"/>
<path fill-rule="evenodd" clip-rule="evenodd" d="M4.07748 100.929L56.3736 100.929L118.001 162.556L175.747 104.81L194.488 123.551L118.001 200.038L45.3955 127.432L4.07745 127.432L4.07748 100.929Z" fill="#24ED8F"/>
</g>
<path d="M311.973 92.3516C311.973 106.648 308.027 117.664 300.137 125.398C292.285 133.133 281.23 137 266.973 137H239.258V51.3359H268.906C282.656 51.3359 293.262 54.8516 300.723 61.8828C308.223 68.9141 311.973 79.0703 311.973 92.3516ZM287.949 93.1719C287.949 85.3203 286.387 79.5 283.262 75.7109C280.176 71.9219 275.469 70.0273 269.141 70.0273H262.402V118.016H267.559C274.59 118.016 279.746 115.984 283.027 111.922C286.309 107.82 287.949 101.57 287.949 93.1719Z" fill="black"/>
<path d="M389.434 103.66C389.434 114.52 386.504 122.996 380.645 129.09C374.824 135.145 366.66 138.172 356.152 138.172C346.074 138.172 338.047 135.066 332.07 128.855C326.133 122.645 323.164 114.246 323.164 103.66C323.164 92.8398 326.074 84.4414 331.895 78.4648C337.754 72.4492 345.957 69.4414 356.504 69.4414C363.027 69.4414 368.789 70.8281 373.789 73.6016C378.789 76.375 382.637 80.3594 385.332 85.5547C388.066 90.7109 389.434 96.7461 389.434 103.66ZM346.426 103.66C346.426 109.363 347.188 113.719 348.711 116.727C350.234 119.695 352.793 121.18 356.387 121.18C359.941 121.18 362.441 119.695 363.887 116.727C365.371 113.719 366.113 109.363 366.113 103.66C366.113 97.9961 365.371 93.7188 363.887 90.8281C362.402 87.9375 359.863 86.4922 356.27 86.4922C352.754 86.4922 350.234 87.9375 348.711 90.8281C347.188 93.6797 346.426 97.957 346.426 103.66Z" fill="black"/>
<path d="M434.609 138.172C423.555 138.172 414.961 135.242 408.828 129.383C402.734 123.484 399.688 115.105 399.688 104.246C399.688 93.0352 402.52 84.4414 408.184 78.4648C413.848 72.4492 421.934 69.4414 432.441 69.4414C442.441 69.4414 450.156 72.0586 455.586 77.293C461.055 82.4883 463.789 89.9883 463.789 99.793V109.988H422.832C422.988 113.699 424.336 116.609 426.875 118.719C429.453 120.828 432.949 121.883 437.363 121.883C441.387 121.883 445.078 121.512 448.438 120.77C451.836 119.988 455.508 118.68 459.453 116.844V133.309C455.859 135.145 452.148 136.414 448.32 137.117C444.492 137.82 439.922 138.172 434.609 138.172ZM433.262 85.0273C430.566 85.0273 428.301 85.8867 426.465 87.6055C424.668 89.2852 423.613 91.9414 423.301 95.5742H442.988C442.91 92.3711 441.992 89.8125 440.234 87.8984C438.516 85.9844 436.191 85.0273 433.262 85.0273Z" fill="black"/>
<path d="M530.645 137L526.426 120.945H498.594L494.258 137H468.828L496.777 50.9844H527.656L555.957 137H530.645ZM521.621 101.961L517.93 87.8984C517.07 84.7734 516.016 80.7305 514.766 75.7695C513.555 70.8086 512.754 67.2539 512.363 65.1055C512.012 67.0977 511.309 70.3789 510.254 74.9492C509.238 79.5195 506.953 88.5234 503.398 101.961H521.621Z" fill="black"/>
<path d="M645.43 137V100.906C645.43 96.4141 644.805 93.0547 643.555 90.8281C642.344 88.5625 640.41 87.4297 637.754 87.4297C634.238 87.4297 631.66 88.9336 630.02 91.9414C628.379 94.9492 627.559 99.6562 627.559 106.062V137H604.59V100.906C604.59 96.4141 604.004 93.0547 602.832 90.8281C601.66 88.5625 599.766 87.4297 597.148 87.4297C593.555 87.4297 590.938 89.0312 589.297 92.2344C587.656 95.4375 586.836 100.672 586.836 107.938V137H563.926V70.6133H581.211L584.082 78.8164H585.43C587.188 75.7695 589.727 73.4453 593.047 71.8438C596.406 70.2422 600.215 69.4414 604.473 69.4414C614.043 69.4414 620.762 72.3516 624.629 78.1719H626.445C628.32 75.4375 630.918 73.3086 634.238 71.7852C637.598 70.2227 641.289 69.4414 645.312 69.4414C653.164 69.4414 658.965 71.4531 662.715 75.4766C666.465 79.5 668.34 85.6133 668.34 93.8164V137H645.43Z" fill="black"/>
<path d="M747.324 103.66C747.324 114.52 744.395 122.996 738.535 129.09C732.715 135.145 724.551 138.172 714.043 138.172C703.965 138.172 695.938 135.066 689.961 128.855C684.023 122.645 681.055 114.246 681.055 103.66C681.055 92.8398 683.965 84.4414 689.785 78.4648C695.645 72.4492 703.848 69.4414 714.395 69.4414C720.918 69.4414 726.68 70.8281 731.68 73.6016C736.68 76.375 740.527 80.3594 743.223 85.5547C745.957 90.7109 747.324 96.7461 747.324 103.66ZM704.316 103.66C704.316 109.363 705.078 113.719 706.602 116.727C708.125 119.695 710.684 121.18 714.277 121.18C717.832 121.18 720.332 119.695 721.777 116.727C723.262 113.719 724.004 109.363 724.004 103.66C724.004 97.9961 723.262 93.7188 721.777 90.8281C720.293 87.9375 717.754 86.4922 714.16 86.4922C710.645 86.4922 708.125 87.9375 706.602 90.8281C705.078 93.6797 704.316 97.957 704.316 103.66Z" fill="black"/>
<path d="M800.527 69.4414C802.52 69.4414 804.414 69.5977 806.211 69.9102L807.5 70.1445L805.449 91.7656C803.574 91.2969 800.977 91.0625 797.656 91.0625C792.656 91.0625 789.023 92.2148 786.758 94.5195C784.492 96.7852 783.359 100.066 783.359 104.363V137H760.449V70.6133H777.5L781.074 81.2188H782.188C784.102 77.7031 786.758 74.8711 790.156 72.7227C793.594 70.5352 797.051 69.4414 800.527 69.4414Z" fill="black"/>
</svg>
