<svg width="24" height="24" viewBox="0 0 24 24" fill="none" xmlns="http://www.w3.org/2000/svg">
<path fill-rule="evenodd" clip-rule="evenodd" d="M16.5179 21.9186C16.7941 22.3969 17.4057 22.5608 17.884 22.2846C18.3623 22.0085 18.5261 21.3969 18.25 20.9186L17.4174 19.4765C18.7831 18.6792 19.9335 17.6664 20.8545 16.6839C21.8432 15.6294 22.5979 14.5787 23.1057 13.7925C23.3601 13.3985 23.5542 13.0684 23.686 12.834C23.752 12.7168 23.8025 12.6233 23.8372 12.5576C23.8546 12.5247 23.8681 12.4987 23.8777 12.4802L23.889 12.458L23.8925 12.4511L23.8936 12.4488C23.8938 12.4484 23.8944 12.4472 23 12L23.8944 12.4472C24.0352 12.1657 24.0348 11.8336 23.8941 11.5521L23.8925 11.5489L23.889 11.542L23.8777 11.5198C23.8681 11.5013 23.8546 11.4753 23.8372 11.4424C23.8025 11.3767 23.752 11.2832 23.686 11.166C23.5542 10.9316 23.3601 10.6015 23.1057 10.2075C22.5979 9.42132 21.8432 8.3706 20.8545 7.31606C18.8955 5.22644 15.8995 3 12 3C10.6597 3 9.42622 3.26301 8.30484 3.69307L7.24999 1.86603C6.97385 1.38773 6.36226 1.22386 5.88397 1.5C5.40568 1.77614 5.2418 2.38773 5.51794 2.86603L6.5022 4.57081C5.17169 5.36068 4.04842 6.35291 3.14546 7.31606C2.15683 8.3706 1.40207 9.42132 0.894336 10.2075C0.63985 10.6015 0.445792 10.9316 0.313971 11.166C0.248023 11.2832 0.19754 11.3767 0.162753 11.4424C0.145357 11.4753 0.131875 11.5013 0.122338 11.5198L0.11099 11.542L0.107539 11.5489L0.10637 11.5512C0.106186 11.5516 0.105574 11.5528 0.99833 11.9992L0.105573 11.5528C-0.0351909 11.8343 -0.0351909 12.1657 0.105573 12.4472L0.107539 12.4511L0.11099 12.458L0.122338 12.4802C0.131875 12.4987 0.145357 12.5247 0.162753 12.5576C0.19754 12.6233 0.248023 12.7168 0.313971 12.834C0.445792 13.0684 0.63985 13.3985 0.894336 13.7925C1.40207 14.5787 2.15683 15.6294 3.14546 16.6839C5.10448 18.7736 8.10049 21 12 21C13.3051 21 14.5091 20.7506 15.6068 20.3404L16.5179 21.9186ZM16.4175 17.7446C17.5589 17.0777 18.5556 16.2119 19.3955 15.3161C20.2818 14.3706 20.9646 13.4213 21.4256 12.7075C21.6051 12.4296 21.75 12.1889 21.8593 12C21.75 11.8111 21.6051 11.5705 21.4256 11.2925C20.9646 10.5787 20.2818 9.62941 19.3955 8.68395C17.6045 6.77356 15.1005 5 12 5C11.0498 5 10.1556 5.16659 9.32073 5.45265L10.8827 8.15812C11.2373 8.05519 11.6122 8 12 8C14.2091 8 16 9.79086 16 12C16 13.135 15.5273 14.1596 14.768 14.8876L16.4175 17.7446ZM13.0244 15.8676L14.5891 18.5777C13.7801 18.8452 12.9161 19 12 19C8.89951 19 6.39552 17.2264 4.60454 15.3161C3.71817 14.3706 3.03543 13.4213 2.57441 12.7075C2.39492 12.4296 2.25003 12.1889 2.14074 12C2.25003 11.8111 2.39492 11.5705 2.57441 11.2925C3.03543 10.5787 3.71817 9.62941 4.60454 8.68395C5.42464 7.80917 6.39425 6.96307 7.50218 6.30282L9.16327 9.17991C8.44429 9.9031 8 10.8997 8 12C8 14.2091 9.79086 16 12 16C12.3541 16 12.6975 15.954 13.0244 15.8676ZM13.7049 13.0462C13.892 12.7418 14 12.3835 14 12C14 10.8954 13.1046 10 12 10C11.9821 10 11.9643 10.0002 11.9466 10.0007L13.7049 13.0462ZM10.2412 11.047L11.9457 13.9993C10.8663 13.9705 10 13.0864 10 12C10 11.6549 10.0874 11.3303 10.2412 11.047ZM0.105573 12.4472C0.105506 12.447 0.107016 12.4463 0.21695 12.3914C0.328282 12.3357 0.550809 12.2246 0.995499 12.0023L0.105573 12.4472ZM23.8941 11.5521L23 12C23.8944 11.5528 23.8943 11.5525 23.8941 11.5521Z" fill="#828282"/>
</svg>
