<svg width="32" height="32" viewBox="0 0 32 32" fill="none" xmlns="http://www.w3.org/2000/svg">
<path fill-rule="evenodd" clip-rule="evenodd" d="M18.5255 6.36025C19.5743 5.95994 20.7207 5.8914 21.8097 6.16389C22.6758 6.38058 23.4722 6.80461 24.1326 7.39516C24.9448 7.09664 25.7151 6.69263 26.4236 6.19289L27 7.01006L27.9716 7.24667C27.629 8.6532 26.9424 9.94962 25.9769 11.021C25.9917 11.1824 25.9994 11.3445 26 11.5067L26 11.5101C26 17.61 23.0631 22.0851 18.8448 24.3303C14.6509 26.5626 9.29085 26.5378 4.51434 23.8842C4.10953 23.6593 3.91208 23.1859 4.03713 22.74C4.16218 22.2941 4.577 21.9924 5.03973 22.0108C6.72654 22.0779 8.39635 21.7425 9.91472 21.043C8.41157 20.1155 7.3294 19.0143 6.57704 17.8264C5.57341 16.2417 5.19454 14.563 5.12601 13.0555C5.05769 11.5523 5.29646 10.199 5.54746 9.22842C5.67356 8.74083 5.8044 8.34356 5.90526 8.06459C5.95575 7.92494 5.99889 7.81447 6.03042 7.73664C6.04619 7.69771 6.05908 7.6669 6.06854 7.64465L6.08011 7.61772L6.08306 7.61097C6.09011 7.59479 6.0976 7.57874 6.10555 7.56284L6.99998 8.01006L7.81834 7.43534C8.73388 8.73902 9.95762 9.79605 11.3806 10.5123C12.5124 11.082 13.7424 11.422 14.9997 11.5165C14.9923 10.4068 15.322 9.32071 15.9456 8.40211C16.5761 7.47331 17.4767 6.76055 18.5255 6.36025ZM7.40463 10.0537C7.22094 10.855 7.07425 11.8713 7.12395 12.9646C7.18043 14.2072 7.48906 15.5284 8.26667 16.7563C9.04027 17.9777 10.316 19.1673 12.4061 20.0962C12.7379 20.2437 12.9637 20.5594 12.996 20.9211C13.0283 21.2828 12.862 21.6335 12.5616 21.8374C11.4507 22.5915 10.2342 23.1589 8.96008 23.5257C12.1302 24.3334 15.307 23.9477 17.9051 22.5648C21.4365 20.6852 23.9995 16.9109 24 11.5117C23.9992 11.2956 23.9783 11.0801 23.9378 10.8678C23.8751 10.5399 23.9801 10.2024 24.2178 9.96805C24.4406 9.74836 24.6469 9.51422 24.8357 9.26756C24.6092 9.35111 24.3799 9.42784 24.1483 9.49759C23.7717 9.611 23.3635 9.49309 23.1054 9.19629C22.6376 8.65838 22.0159 8.27712 21.3243 8.10408C20.6327 7.93103 19.9047 7.97456 19.2387 8.22877C18.5726 8.48298 18.0007 8.93561 17.6003 9.52543C17.1999 10.1153 16.9903 10.8138 16.9999 11.5267L17.0001 11.5401H17V12.5401C17 13.0822 16.5679 13.5257 16.0259 13.5397C14.1037 13.5896 12.199 13.1632 10.4814 12.2987C9.33583 11.7221 8.29723 10.9625 7.40463 10.0537Z" fill="#BD00B3"/>
</svg>
