<svg width="100" height="100" viewBox="0 0 100 100" fill="none" xmlns="http://www.w3.org/2000/svg">
<g opacity="0.1">
<path d="M45.0533 42.8535C44.909 42.7556 41.4762 40.415 37.9903 37.1958C33.0711 32.6521 30.5762 28.6834 30.5762 25.3998C30.5762 19.665 34.914 15 40.2455 15C42.3335 15 44.3631 15.7353 46.0208 17.059C47.6778 15.7353 49.7074 15 51.7954 15C57.1269 15 61.4648 19.665 61.4648 25.3998C61.4648 28.6834 58.9699 32.6521 54.0506 37.1958C50.5648 40.415 47.1319 42.7556 46.9869 42.8535C46.6955 43.0512 46.3578 43.1504 46.0201 43.1504C45.6831 43.1504 45.3454 43.0512 45.0533 42.8535Z" fill="#EF61E8"/>
<path d="M45.8647 53.0443C42.6498 49.6718 38.5995 47.2654 34.0439 46.0466C20.4899 42.4218 6.50957 50.4797 2.87803 64.0103C1.11899 70.5648 2.02134 77.4102 5.41991 83.2871C8.81848 89.164 14.3057 93.3672 20.8713 95.1233C23.0372 95.7031 25.2386 95.9839 27.4227 95.9839C34.3715 95.9839 41.1398 93.1353 45.9939 87.993C47.6785 89.7773 49.6329 91.3256 51.8196 92.5857C55.7405 94.8458 60.0918 96 64.5015 96C66.711 96 68.9367 95.7098 71.1287 95.1233C77.6943 93.3672 83.1815 89.164 86.5801 83.2871C88.9036 79.2685 90.0605 74.7967 89.9974 70.275C89.9991 70.1528 90 70.0304 90 69.9078C90 55.9584 78.6728 44.6502 64.7 44.6502C57.2191 44.6502 50.4966 47.8916 45.8647 53.0443Z" fill="#EF61E8"/>
</g>
<path fill-rule="evenodd" clip-rule="evenodd" d="M49.0534 35.8535C48.9091 35.7556 45.4763 33.4151 41.9904 30.1958C37.0711 25.6521 34.5762 21.6834 34.5762 18.3998C34.5762 12.665 38.9141 8 44.2456 8C46.3336 8 48.3632 8.73528 50.0209 10.059C51.6779 8.73528 53.7075 8 55.7955 8C61.127 8 65.4649 12.665 65.4649 18.3998C65.4649 21.6834 62.97 25.6521 58.0507 30.1958C54.5649 33.4151 51.132 35.7556 50.987 35.8535C50.6956 36.0512 50.3579 36.1504 50.0202 36.1504C49.6832 36.1504 49.3455 36.0512 49.0534 35.8535ZM48.7204 13.5551C47.5341 12.1865 45.9449 11.4331 44.2456 11.4331C40.8101 11.4331 38.0151 14.5579 38.0151 18.3998C38.0151 22.3617 45.013 28.7487 50.0202 32.3386C55.0275 28.7487 62.026 22.3617 62.026 18.3998C62.026 14.5579 59.231 11.4331 55.7955 11.4331C54.0962 11.4331 52.5064 12.1865 51.3207 13.5551C50.9944 13.9325 50.5197 14.149 50.0202 14.149C49.5214 14.149 49.0467 13.9325 48.7204 13.5551Z" fill="#BD00B3"/>
<path d="M24.6075 56.7402C24.4524 56.6986 24.2933 56.7905 24.2517 56.9453C24.0059 57.8609 23.0633 58.4038 22.1455 58.1585C21.2284 57.9132 20.6839 56.9721 20.9296 56.0559C21.462 54.0732 23.5111 52.8922 25.4971 53.4237C27.4831 53.9553 28.666 56.0009 28.1343 57.9835C27.9282 58.7503 27.2333 59.2564 26.4746 59.2564C26.3269 59.2564 26.1772 59.2369 26.0282 59.1974C25.111 58.9521 24.5672 58.011 24.8129 57.0954C24.8539 56.9406 24.7619 56.7811 24.6075 56.7402Z" fill="#BD00B3"/>
<path d="M35.7835 68.62C34.8664 68.3747 33.9231 68.9183 33.6773 69.8338C33.0925 72.0135 30.84 73.3125 28.6567 72.728C26.4733 72.1436 25.1728 69.8955 25.7576 67.7151C26.004 66.7996 25.4595 65.8585 24.5417 65.6132C23.6253 65.3679 22.682 65.9108 22.4362 66.827C21.3607 70.8352 23.7515 74.9694 27.7664 76.0438C28.4177 76.2181 29.0716 76.3012 29.7161 76.3012C33.0442 76.3012 36.0977 74.0806 36.9994 70.7226C37.2451 69.807 36.7006 68.866 35.7835 68.62Z" fill="#BD00B3"/>
<path fill-rule="evenodd" clip-rule="evenodd" d="M82.6149 42.4194C87.7839 45.8411 91.5155 51.0229 93.1221 57.0103C94.8812 63.5642 93.9781 70.4102 90.5802 76.2871C87.1817 82.164 81.6944 86.3672 75.1289 88.1233C72.9368 88.7098 70.7111 89 68.5016 89C64.0919 89 59.7406 87.8458 55.8197 85.5857C53.633 84.3256 51.6786 82.7773 49.994 80.993C45.1399 86.1353 38.3716 88.9839 31.4227 88.9839C29.2387 88.9839 27.0372 88.7031 24.8713 88.1233C18.3058 86.3672 12.8185 82.164 9.41991 76.2871C6.02134 70.4102 5.11899 63.5648 6.87803 57.0103C10.5096 43.4797 24.4899 35.4218 38.044 39.0466C42.6611 40.2819 46.7593 42.7371 49.9947 46.1816C53.2033 42.7605 57.3088 40.2899 61.9569 39.0466C64.0959 38.4749 66.2927 38.1813 68.4881 38.1753C69.4321 38.1692 70.2096 38.9394 70.2123 39.8871C70.2143 40.8349 69.4469 41.6057 68.4975 41.6084C66.5995 41.6137 64.6981 41.8671 62.8464 42.3631C57.1678 43.8819 52.4224 47.5174 49.4831 52.6C46.5438 57.6819 45.7629 63.603 47.2843 69.2715C48.8057 74.9406 52.4473 79.6786 57.5384 82.6124C62.6296 85.5468 68.56 86.3263 74.2386 84.8075C79.9165 83.2887 84.6626 79.6532 87.6019 74.5706C90.5413 69.488 91.3221 63.5675 89.8007 57.8984C88.411 52.7206 85.1836 48.2393 80.7142 45.2801C79.9233 44.7559 79.7071 43.6909 80.2314 42.9006C80.7565 42.111 81.824 41.8952 82.6149 42.4194ZM12.3975 74.5706C15.3369 79.6532 20.0829 83.2887 25.7609 84.8075C33.7403 86.9416 42.2818 84.3946 47.7939 78.312C46.0617 75.8776 44.7599 73.1302 43.9629 70.1602C43.3325 67.811 43.0458 65.4242 43.0915 63.0574C42.7947 63.288 42.4248 63.4194 42.0387 63.4194C41.891 63.4194 41.7413 63.4006 41.5923 63.3604C40.6751 63.1158 40.1306 62.174 40.3764 61.2585C40.418 61.1036 40.326 60.9448 40.1709 60.9032C40.0749 60.8778 39.9984 60.9046 39.9507 60.932C39.903 60.9595 39.8413 61.0125 39.8151 61.1083C39.5694 62.0239 38.6261 62.5675 37.7096 62.3222C36.7918 62.0769 36.248 61.1351 36.4937 60.2196C36.7515 59.2591 37.3685 58.4561 38.2313 57.9594C39.094 57.4621 40.0984 57.3294 41.0612 57.5874C42.1213 57.871 42.9518 58.5861 43.4157 59.4923C43.9065 56.4989 44.9405 53.588 46.5048 50.8828C46.9076 50.1871 47.34 49.5154 47.7993 48.868C44.9566 45.713 41.2962 43.471 37.1537 42.3631C25.4312 39.2269 13.3402 46.1963 10.1994 57.8984C8.67803 63.5675 9.45886 69.488 12.3975 74.5706Z" fill="#BD00B3"/>
<path d="M74.8811 42.5413L74.9301 42.5561C75.098 42.6077 75.2672 42.6318 75.4344 42.6318C76.1702 42.6318 76.851 42.1566 77.0773 41.418C77.3559 40.5111 76.8449 39.5513 75.9372 39.2738L75.8741 39.255C74.965 38.9809 74.0056 39.4943 73.7317 40.4025C73.4571 41.31 73.9714 42.2679 74.8811 42.5413Z" fill="#BD00B3"/>
<path d="M60.1844 61.1083C60.1435 60.9541 59.9837 60.8616 59.8286 60.9032C59.6742 60.9447 59.5822 61.1036 59.6238 61.2584C59.8695 62.174 59.325 63.1157 58.4079 63.361C58.2589 63.4006 58.1091 63.42 57.9614 63.42C57.2028 63.42 56.5079 62.914 56.3018 62.1472C55.77 60.1639 56.9523 58.1183 58.939 57.5874C60.925 57.0559 62.974 58.2369 63.5065 60.2195C63.7522 61.1351 63.2077 62.0768 62.2906 62.3221C61.3728 62.5674 60.4301 62.0239 60.1844 61.1083Z" fill="#BD00B3"/>
<path d="M73.5249 59.2564C73.672 59.2564 73.8224 59.2376 73.9707 59.1974C74.8885 58.9521 75.4324 58.011 75.1866 57.0954C75.1457 56.9406 75.2377 56.7811 75.3921 56.7402C75.4881 56.7147 75.5653 56.7415 75.613 56.769C75.66 56.7965 75.7224 56.8494 75.7479 56.9453C75.9936 57.8609 76.9363 58.4045 77.8541 58.1591C78.7712 57.9138 79.3157 56.9721 79.07 56.0565C78.8115 55.096 78.1951 54.2931 77.3324 53.7957C76.469 53.2984 75.4646 53.1663 74.5025 53.4237C72.5158 53.9552 71.3328 56.0009 71.8652 57.9835C72.0714 58.7503 72.7656 59.2564 73.5249 59.2564Z" fill="#BD00B3"/>
<path d="M64.2161 68.62C65.1333 68.3747 66.0765 68.9182 66.3223 69.8338C66.9071 72.0142 69.1596 73.3125 71.3429 72.728C73.5263 72.1442 74.8268 69.8955 74.242 67.7158C73.9963 66.8002 74.5401 65.8585 75.4579 65.6132C76.375 65.3679 77.3176 65.9114 77.5634 66.827C78.6389 70.8352 76.2481 74.97 72.2332 76.0438C71.582 76.2181 70.9274 76.3012 70.2835 76.3012C66.9554 76.3012 63.9019 74.0813 63.0002 70.7226C62.7545 69.807 63.299 68.866 64.2161 68.62Z" fill="#BD00B3"/>
<path d="M83.0325 16.2067C83.9818 16.2067 84.7519 15.4386 84.7519 14.4901V12.1194C84.7519 11.1717 83.9818 10.4029 83.0325 10.4029C82.0831 10.4029 81.3131 11.1717 81.3131 12.1194V14.4901C81.3131 15.4386 82.0831 16.2067 83.0325 16.2067Z" fill="#BD00B3"/>
<path d="M84.7519 25.8511C84.7519 26.7996 83.9818 27.5677 83.0325 27.5677C82.0831 27.5677 81.3131 26.7996 81.3131 25.8511V23.4804C81.3131 22.5327 82.0831 21.7645 83.0325 21.7645C83.9818 21.7645 84.7519 22.5327 84.7519 23.4804V25.8511Z" fill="#BD00B3"/>
<path d="M87.5355 20.7022H89.9102C90.8595 20.7022 91.6296 19.9334 91.6296 18.9856C91.6296 18.0372 90.8595 17.2691 89.9102 17.2691H87.5355C86.5854 17.2691 85.816 18.0372 85.816 18.9856C85.816 19.9334 86.5854 20.7022 87.5355 20.7022Z" fill="#BD00B3"/>
<path d="M78.5295 20.7022H76.1548C75.2055 20.7022 74.4354 19.9334 74.4354 18.9856C74.4354 18.0372 75.2055 17.2691 76.1548 17.2691H78.5295C79.4795 17.2691 80.2489 18.0372 80.2489 18.9856C80.2489 19.9334 79.4795 20.7022 78.5295 20.7022Z" fill="#BD00B3"/>
<path d="M17.0086 16.2067C17.958 16.2067 18.7281 15.4386 18.7281 14.4901V12.1194C18.7281 11.1717 17.958 10.4029 17.0086 10.4029C16.0586 10.4029 15.2892 11.1717 15.2892 12.1194V14.4901C15.2892 15.4386 16.0586 16.2067 17.0086 16.2067Z" fill="#BD00B3"/>
<path d="M18.7281 25.8511C18.7281 26.7996 17.958 27.5677 17.0086 27.5677C16.0586 27.5677 15.2892 26.7996 15.2892 25.8511V23.4804C15.2892 22.5327 16.0586 21.7645 17.0086 21.7645C17.958 21.7645 18.7281 22.5327 18.7281 23.4804V25.8511Z" fill="#BD00B3"/>
<path d="M21.5116 20.7022H23.8857C24.8357 20.7022 25.6051 19.9334 25.6051 18.9856C25.6051 18.0372 24.8357 17.2691 23.8857 17.2691H21.5116C20.5616 17.2691 19.7922 18.0372 19.7922 18.9856C19.7922 19.9334 20.5616 20.7022 21.5116 20.7022Z" fill="#BD00B3"/>
<path d="M12.5056 20.7022H10.1309C9.18158 20.7022 8.41149 19.9334 8.41149 18.9856C8.41149 18.0372 9.18158 17.2691 10.1309 17.2691H12.5056C13.455 17.2691 14.2251 18.0372 14.2251 18.9856C14.2251 19.9334 13.455 20.7022 12.5056 20.7022Z" fill="#BD00B3"/>
</svg>
