<svg width="32" height="32" viewBox="0 0 32 32" fill="none" xmlns="http://www.w3.org/2000/svg">
<path fill-rule="evenodd" clip-rule="evenodd" d="M13.7574 6.75736C14.8826 5.63214 16.4087 5 18 5H21C21.5523 5 22 5.44772 22 6V10C22 10.5523 21.5523 11 21 11H18V13H21C21.3079 13 21.5987 13.1419 21.7882 13.3846C21.9777 13.6273 22.0448 13.9438 21.9701 14.2425L20.9701 18.2425C20.8589 18.6877 20.4589 19 20 19H18V26C18 26.5523 17.5523 27 17 27H13C12.4477 27 12 26.5523 12 26V19H10C9.44772 19 9 18.5523 9 18V14C9 13.4477 9.44772 13 10 13H12V11C12 9.4087 12.6321 7.88258 13.7574 6.75736ZM18 7C16.9391 7 15.9217 7.42143 15.1716 8.17157C14.4214 8.92172 14 9.93913 14 11V14C14 14.5523 13.5523 15 13 15H11V17H13C13.5523 17 14 17.4477 14 18V25H16V18C16 17.4477 16.4477 17 17 17H19.2192L19.7192 15H17C16.4477 15 16 14.5523 16 14V11C16 10.4696 16.2107 9.96086 16.5858 9.58579C16.9609 9.21071 17.4696 9 18 9H20V7H18Z" fill="#BD00B3"/>
</svg>
