<svg width="32" height="32" viewBox="0 0 32 32" fill="none" xmlns="http://www.w3.org/2000/svg">
<path fill-rule="evenodd" clip-rule="evenodd" d="M16.0004 7C16.0005 7 16.0006 7 16.0006 8L16.0006 9L15.9251 9.00011C15.8751 9.00022 15.8011 9.00044 15.7063 9.00089C15.5165 9.00178 15.2431 9.00356 14.9094 9.00713C14.2416 9.01427 13.3345 9.02855 12.3753 9.05706C11.4144 9.08561 10.4092 9.12821 9.54269 9.19141C8.65458 9.25619 7.99469 9.33761 7.66592 9.42419C7.36722 9.51 7.09615 9.67253 6.87971 9.89566C6.66858 10.1133 6.51667 10.3812 6.43818 10.6738C6.13864 12.3474 5.99216 14.0448 6.00056 15.7451L6.00061 15.7563C5.9899 17.4635 6.13528 19.1681 6.43505 20.8487C6.52167 21.1264 6.6751 21.3788 6.88215 21.5837C7.09906 21.7984 7.36751 21.9537 7.66171 22.0347C7.98903 22.1217 8.65077 22.2035 9.54269 22.2686C10.4092 22.3318 11.4144 22.3744 12.3753 22.4029C13.3345 22.4314 14.2416 22.4457 14.9094 22.4529C15.2431 22.4564 15.5165 22.4582 15.7063 22.4591C15.8011 22.4596 15.8751 22.4598 15.9251 22.4599H16.076C16.1261 22.4598 16.2 22.4596 16.2949 22.4591C16.4846 22.4582 16.7581 22.4564 17.0917 22.4529C17.7595 22.4457 18.6666 22.4314 19.6259 22.4029C20.5867 22.3744 21.592 22.3318 22.4585 22.2686C23.3466 22.2038 24.0065 22.1224 24.3352 22.0358C24.6339 21.95 24.905 21.7875 25.1214 21.5643C25.3326 21.3467 25.4845 21.0788 25.563 20.7863C25.8602 19.1253 26.0066 17.4409 26.0006 15.7536L26.0005 15.7437C26.0113 14.0306 25.8649 12.3201 25.563 10.6338C25.4845 10.3412 25.3326 10.0733 25.1214 9.85566C24.9075 9.63509 24.6401 9.47373 24.3455 9.38717C24.0055 9.3072 23.3432 9.23348 22.4647 9.17498C21.5965 9.11716 20.5899 9.07822 19.6285 9.05213C18.6685 9.02609 17.7608 9.01304 17.0927 9.00651C16.7588 9.00325 16.4852 9.00162 16.2953 9.00081L16.0762 9.0001L16.0006 9L16.0006 8C16.0006 7 16.0005 7 16.0004 7L16.0803 7.0001C16.1318 7.00021 16.2073 7.00042 16.3038 7.00083C16.4969 7.00166 16.7742 7.00331 17.1122 7.00661C17.7878 7.01321 18.7077 7.02641 19.6827 7.05287C20.6562 7.07928 21.6921 7.11909 22.5976 7.1794C23.4773 7.23798 24.3121 7.32017 24.8378 7.44854C24.8495 7.45141 24.8612 7.45448 24.8728 7.45777C25.5129 7.63886 26.0939 7.98566 26.557 8.46315C27.0202 8.94063 27.3491 9.53189 27.5106 10.1772L26.5406 10.42L27.5247 10.2425C27.8526 12.0602 28.0119 13.9043 28.0006 15.7513C28.0068 17.5707 27.8475 19.3869 27.5247 21.1774C27.5207 21.1994 27.5161 21.2212 27.5106 21.2428C27.3491 21.8881 27.0202 22.4794 26.557 22.9569C26.0939 23.4343 25.5129 23.7811 24.8728 23.9622L24.8589 23.966C24.3253 24.1088 23.4832 24.1992 22.6039 24.2633C21.6967 24.3295 20.6594 24.3731 19.6853 24.4021C18.7095 24.4311 17.7891 24.4455 17.1131 24.4528C16.775 24.4564 16.4975 24.4582 16.3042 24.4591C16.2076 24.4595 16.1321 24.4598 16.0805 24.4599L16.001 24.46L15.9207 24.4599C15.8691 24.4598 15.7935 24.4595 15.6969 24.4591C15.5037 24.4582 15.2262 24.4564 14.888 24.4528C14.212 24.4455 13.2916 24.4311 12.3159 24.4021C11.3417 24.3731 10.3045 24.3295 9.3972 24.2633C8.5179 24.1992 7.67586 24.1088 7.14221 23.966L7.13665 23.9646C6.50958 23.793 5.93736 23.4626 5.47528 23.0052C5.0132 22.5479 4.67688 21.9792 4.49881 21.3539C4.48977 21.3222 4.48231 21.29 4.47645 21.2575C4.14861 19.44 3.98931 17.5961 4.00056 15.7493C3.99184 13.9164 4.15114 12.0864 4.47645 10.2825C4.4804 10.2606 4.48509 10.2388 4.4905 10.2172C4.65202 9.57189 4.98097 8.98063 5.44413 8.50315C5.90729 8.02566 6.48825 7.67886 7.12834 7.49777L7.14221 7.49395C7.67586 7.35123 8.5179 7.26085 9.3972 7.19671C10.3045 7.13054 11.3417 7.08689 12.3159 7.05794C13.2916 7.02895 14.212 7.01448 14.888 7.00724C15.2262 7.00363 15.5037 7.00182 15.6969 7.00091C15.7935 7.00046 15.8691 7.00023 15.9207 7.00011L16.0004 7Z" fill="#BD00B3"/>
<path fill-rule="evenodd" clip-rule="evenodd" d="M13.2477 11.6156C13.5555 11.4365 13.9353 11.4347 14.2449 11.6107L19.9949 14.8807C20.3075 15.0585 20.5005 15.3904 20.5005 15.75C20.5005 16.1096 20.3075 16.4415 19.9949 16.6192L14.2449 19.8892C13.9353 20.0653 13.5555 20.0634 13.2477 19.8844C12.9399 19.7053 12.7505 19.3761 12.7505 19.02V12.48C12.7505 12.1239 12.9399 11.7946 13.2477 11.6156ZM14.7505 14.1991V17.3009L17.4777 15.75L14.7505 14.1991Z" fill="#BD00B3"/>
</svg>
