<svg width="100" height="100" viewBox="0 0 100 100" fill="none" xmlns="http://www.w3.org/2000/svg">
<path d="M61.6528 63.355C61.6098 63.2518 61.5565 63.1521 61.4946 63.0593C61.4328 62.9648 61.3606 62.8772 61.2815 62.7981C61.2025 62.719 61.1131 62.6468 61.0203 62.585C60.9257 62.5214 60.826 62.4698 60.7229 62.4268C60.6198 62.3839 60.5115 62.3495 60.4015 62.3271C60.1798 62.2842 59.9512 62.2842 59.7295 62.3271C59.6195 62.3495 59.5129 62.3839 59.4081 62.4268C59.305 62.4698 59.2053 62.5214 59.1125 62.585C59.0179 62.6468 58.9303 62.719 58.8512 62.7981C58.7704 62.8772 58.7 62.9648 58.6364 63.0593C58.5745 63.1521 58.5212 63.2518 58.4782 63.355C58.4353 63.4598 58.4026 63.5681 58.3803 63.6781C58.3579 63.7881 58.3476 63.9015 58.3476 64.0132C58.3476 64.125 58.3579 64.2384 58.3803 64.3484C58.4026 64.4584 58.4353 64.5667 58.4782 64.6698C58.5212 64.7746 58.5745 64.8743 58.6364 64.9671C58.7 65.0617 58.7704 65.1493 58.8512 65.2284C58.9303 65.3075 59.0179 65.3796 59.1125 65.4415C59.2053 65.5034 59.305 65.5567 59.4081 65.5996C59.5129 65.6426 59.6195 65.677 59.7295 65.6976C59.8412 65.72 59.9529 65.732 60.0664 65.732C60.1781 65.732 60.2898 65.72 60.4015 65.6976C60.5115 65.677 60.6198 65.6426 60.7229 65.5996C60.826 65.5567 60.9257 65.5034 61.0203 65.4415C61.1131 65.3796 61.2025 65.3075 61.2815 65.2284C61.3606 65.1493 61.4328 65.0617 61.4946 64.9671C61.5565 64.8743 61.6098 64.7746 61.6528 64.6698C61.6957 64.5667 61.7284 64.4584 61.7507 64.3484C61.7731 64.2384 61.7851 64.125 61.7851 64.0132C61.7851 63.9015 61.7731 63.7881 61.7507 63.6781C61.7284 63.5681 61.6957 63.4598 61.6528 63.355Z" fill="#BD00B3"/>
<path fill-rule="evenodd" clip-rule="evenodd" d="M40.0192 49.618L47.5693 50.7151C48.2168 50.8093 48.7548 51.2627 48.9569 51.8849C49.159 52.5071 48.9904 53.1901 48.5219 53.6468L43.0585 58.9721L44.3482 66.4917C44.4589 67.1366 44.1939 67.7883 43.6645 68.1728C43.3651 68.3904 43.0103 68.5011 42.6541 68.5011C42.3806 68.5011 42.1059 68.4359 41.8545 68.3036L35.1015 64.7533L28.3484 68.3036C27.7693 68.6081 27.0676 68.5573 26.5384 68.1728C26.009 67.7881 25.744 67.1364 25.8547 66.4917L27.1444 58.9721L21.6814 53.6468C21.2128 53.1901 21.044 52.5071 21.2463 51.8849C21.4486 51.2627 21.9864 50.8091 22.6339 50.7151L30.1838 49.618L33.5603 42.7765C33.8498 42.1899 34.4474 41.8185 35.1015 41.8185C35.7557 41.8185 36.3531 42.1899 36.6427 42.7765L40.0192 49.618ZM39.5179 58.6626C39.4221 58.105 39.6071 57.5361 40.0122 57.1413L43.6288 53.6162L38.6308 52.8898C38.071 52.8085 37.5872 52.4569 37.3368 51.9497L35.1017 47.4208L32.8665 51.9497C32.6391 52.4101 32.2185 52.7401 31.7242 52.8582C31.674 52.8702 31.6238 52.8823 31.5722 52.8898L26.5743 53.6164L30.1907 57.1415C30.4099 57.355 30.5618 57.62 30.6426 57.906C30.7112 58.1489 30.729 58.4067 30.685 58.6628L29.8313 63.6404L34.3016 61.2902C34.8025 61.0269 35.4006 61.0269 35.9013 61.2902L40.3716 63.6403L39.5179 58.6626Z" fill="#BD00B3"/>
<path fill-rule="evenodd" clip-rule="evenodd" d="M93.9594 61.7104L92.9252 53.0471C92.814 52.1159 91.9767 51.4457 91.0439 51.5409C87.6256 51.8907 84.5126 49.3985 84.1055 45.9865C83.6981 42.5744 86.1369 39.42 89.5415 38.9549C90.4709 38.8279 91.1267 37.9795 91.0155 37.0483L89.9815 28.3849C89.8028 26.8882 89.052 25.5507 87.8675 24.6186C86.6827 23.6867 85.2062 23.272 83.7096 23.4504L23.3398 30.6562C21.8582 30.8331 20.5332 31.5713 19.6025 32.7352H11.643C8.53137 32.7356 6 35.267 6 38.3784V47.1033C6 48.0412 6.75195 48.8059 7.68953 48.8219C11.1255 48.8801 13.9209 51.7233 13.9209 55.1596C13.9209 58.5959 11.1255 61.439 7.68953 61.4975C6.75195 61.5131 6 62.278 6 63.2157V71.9406C6 75.0521 8.53137 77.5834 11.643 77.5834H72.4414C75.553 77.5834 78.0844 75.0521 78.0844 71.9404V69.2882L89.025 67.9823C90.5217 67.8038 91.8593 67.053 92.7913 65.8683C93.7231 64.6835 94.138 63.207 93.9594 61.7104ZM74.6469 71.9404C74.6469 73.1565 73.6575 74.1459 72.4414 74.1459H61.7844V70.9235C61.7844 69.9742 61.0149 69.2047 60.0657 69.2047C59.1164 69.2047 58.3469 69.9742 58.3469 70.9235V74.1458H11.643C10.427 74.1458 9.4375 73.1565 9.4375 71.9403V64.76C11.3685 64.3903 13.1421 63.446 14.5489 62.0172C16.3606 60.1773 17.3584 57.7418 17.3584 55.1594C17.3584 52.577 16.3606 50.1415 14.5489 48.3016C13.1419 46.8728 11.3685 45.9285 9.4375 45.5588V38.3784C9.4375 37.1624 10.4268 36.1729 11.643 36.1729H58.3471V57.1023C58.3471 58.0516 59.1166 58.8211 60.0658 58.8211C61.0151 58.8211 61.7846 58.0516 61.7846 57.1023V36.1731H72.4415C73.6575 36.1731 74.647 37.1624 74.647 38.3786V45.559C72.716 45.9287 70.9424 46.873 69.5355 48.3018C67.7237 50.1417 66.7262 52.5772 66.7262 55.1596C66.7262 57.742 67.7239 60.1775 69.5355 62.0174C70.9424 63.4462 72.716 64.3905 74.647 64.7602L74.6469 71.9404ZM90.0896 63.743C89.7254 64.2059 89.2026 64.4995 88.6177 64.5692L78.0844 65.8265V63.2157C78.0844 62.2778 77.3324 61.5131 76.3948 61.4971C72.9589 61.4389 70.1635 58.5957 70.1635 55.1593C70.1635 51.7228 72.9589 48.8798 76.3948 48.8215C77.3326 48.8056 78.0844 48.0409 78.0844 47.103V38.3781C78.0844 35.2664 75.553 32.7351 72.4414 32.7351H34.9259L84.117 26.8638C84.7015 26.7939 85.279 26.9561 85.7421 27.3203C86.2051 27.6845 86.4985 28.2074 86.5683 28.7923L87.4194 35.9222C85.5458 36.5182 83.8966 37.666 82.6689 39.2514C81.0882 41.2931 80.3861 43.8296 80.6922 46.3938C80.9983 48.958 82.2778 51.2582 84.2945 52.8704C85.8608 54.1225 87.7338 54.8497 89.695 54.9881L90.5461 62.118C90.6159 62.7029 90.4538 63.28 90.0896 63.743Z" fill="#BD00B3"/>
<path opacity="0.1" d="M88.9253 61.5423L89.9594 70.1779C90.138 71.6696 89.7231 73.1414 88.7914 74.3224C87.8593 75.5033 86.5218 76.2517 85.0251 76.4297L74.0844 77.7314V80.3751C74.0844 83.4767 71.553 86 68.4414 86H7.643C4.53137 86 2 83.4767 2 80.3753V71.6783C2 70.7436 2.75195 69.9812 3.68953 69.9656C7.12548 69.9073 9.92086 67.0733 9.92086 63.648C9.92086 60.2227 7.12548 57.3887 3.68953 57.3306C2.75195 57.3147 2 56.5524 2 55.6175V46.9206C2 43.8191 4.53137 41.2958 7.643 41.2955H15.6025C16.5332 40.1353 17.8582 39.3994 19.3398 39.2232L79.7097 32.0404C81.2062 31.8625 82.6828 32.2759 83.8675 33.2049C85.0521 34.134 85.8028 35.4672 85.9816 36.9591L87.0156 45.5947C87.1268 46.5229 86.4709 47.3686 85.5416 47.4952C82.1369 47.9588 79.6982 51.1031 80.1055 54.5043C80.5127 57.9054 83.6257 60.3896 87.0439 60.0409C87.9767 59.946 88.8141 60.614 88.9253 61.5423Z" fill="#EF61E8"/>
</svg>
