<svg width="100" height="100" viewBox="0 0 100 100" fill="none" xmlns="http://www.w3.org/2000/svg">
<path d="M56.0581 52.4674C56.3817 52.7458 56.7825 52.8848 57.184 52.8848C57.5855 52.8848 57.987 52.7458 58.3099 52.4674C59.9475 51.0557 61.5122 49.7254 62.9986 48.4617C74.2407 38.9037 81.0076 33.1504 81.0076 24.7537C81.0076 17.2327 75.6546 11 68.1344 11C63.1957 11 59.4137 13.8315 56.9779 18.0809C54.5475 13.8409 50.7696 11 45.8234 11C40.0663 11 35.2531 14.7111 33.5612 20.4536C33.294 21.3598 33.8163 22.3095 34.7274 22.5753C35.6385 22.841 36.5932 22.3215 36.8597 21.4153C38.1119 17.1653 41.6299 14.4192 45.8234 14.4192C50.7266 14.4192 54.1661 18.75 55.3216 22.7823C55.5277 23.5229 56.2058 24.0358 56.9779 24.0358C57.7507 24.0358 58.4281 23.5229 58.6342 22.7823C58.6577 22.6988 61.0452 14.4192 68.1344 14.4192C73.5136 14.4192 77.5701 18.8615 77.5701 24.7537C77.5701 31.5784 71.5513 36.694 60.9837 45.6758C59.7754 46.7027 58.5077 47.7802 57.1827 48.9166C55.3834 47.3796 53.6687 45.9467 52.0515 44.5953C46.5973 40.0374 42.2523 36.4064 39.5124 32.8369C38.9363 32.0863 37.8581 31.942 37.1034 32.515C36.3488 33.088 36.2044 34.1605 36.7798 34.9118C39.7507 38.782 44.2382 42.5319 49.834 47.2079C51.7803 48.8343 53.8609 50.5729 56.0581 52.4674Z" fill="#BD00B3"/>
<path d="M12.875 57.5181C12.875 56.5744 13.6451 55.8084 14.5938 55.8084C15.5425 55.8084 16.3126 56.5744 16.3126 57.5181C16.3126 58.4617 15.5425 59.2277 14.5938 59.2277C13.6451 59.2277 12.875 58.4617 12.875 57.5181Z" fill="#BD00B3"/>
<path fill-rule="evenodd" clip-rule="evenodd" d="M68.7937 67.2776L84.997 61.7367C88.1472 60.6128 91.6458 61.8362 93.1396 64.5863C95.1706 68.3234 93.4163 72.5633 89.8633 73.9971L57.7836 88.0473C54.9161 89.3429 51.8666 90 48.7192 90C44.7472 90 40.8485 88.9255 37.4432 86.8927L28.4546 81.5281C27.04 80.684 24.7888 80.1116 22.8431 79.8712C22.0979 81.7932 20.2207 83.1616 18.0313 83.1616H7.71876C6.76941 83.1616 6 82.3962 6 81.452V50.6797C6 49.7354 6.76941 48.9701 7.71876 48.9701H18.0313C20.2717 48.9701 22.1825 50.3992 22.8915 52.3886H35.0759C37.1404 52.3886 39.1807 52.9209 40.976 53.9273L50.0566 59.0073C50.3137 59.1516 50.6051 59.227 50.9005 59.227H62.0308C65.8222 59.227 68.9058 62.295 68.9058 66.0655C68.9058 66.4762 68.8656 66.8809 68.7937 67.2776ZM18.0313 79.7423C18.9759 79.7423 19.746 78.9797 19.7501 78.0408V54.0989C19.7501 53.1559 18.9786 52.3893 18.0313 52.3893H9.43751V79.7423H18.0313ZM88.503 70.8571C88.5212 70.8497 88.5393 70.8417 88.5574 70.835C90.293 70.1438 91.1396 68.0956 90.1157 66.2117C89.4329 64.9549 87.6913 64.4046 86.1512 64.9576L65.2528 72.1032C64.2679 72.6254 63.1581 72.9039 62.0308 72.9039H44.5586C43.6092 72.9039 42.8398 72.1386 42.8398 71.195C42.8398 70.2507 43.6092 69.4854 44.5586 69.4854H62.0308C63.9255 69.4854 65.4683 67.9447 65.4683 66.0661C65.4683 64.1802 63.9261 62.6469 62.0308 62.6469H50.9005C50.0156 62.6469 49.1401 62.4185 48.3707 61.9871L39.2902 56.907C38.0072 56.1878 36.5502 55.8085 35.0759 55.8085H23.1876V76.468C25.5435 76.7485 28.2989 77.4484 30.2231 78.5964L39.2123 83.9609C42.0832 85.6752 45.3703 86.5808 48.7192 86.5808C51.3752 86.5808 53.9493 86.0258 56.3697 84.9306L88.503 70.8571Z" fill="#BD00B3"/>
<path d="M33.3282 27.7709C33.3282 26.8272 34.0983 26.0613 35.047 26.0613C35.9956 26.0613 36.7657 26.8272 36.7657 27.7709C36.7657 28.7145 35.9956 29.4805 35.047 29.4805C34.0983 29.4805 33.3282 28.7145 33.3282 27.7709Z" fill="#BD00B3"/>
<g opacity="0.1">
<path d="M32.7554 23.2081C29.4505 27.4293 29.4711 30.6468 31.1051 35.7641C32.7554 40.9325 36.753 44.9555 41.0051 48.6868C47.29 54.202 53.4735 59.2107 53.4735 59.2107C53.4735 59.2107 60.225 54.2604 66.8553 48.6868C71.242 44.9991 75.6552 40.9325 76.7553 35.7641C77.8884 30.4405 77.5226 27.3431 74.0055 23.2081C70.8131 19.4548 67.2706 17.2695 62.4554 18.2231C57.1753 19.2689 53.4735 25.9777 53.4735 25.9777C53.4735 25.9777 49.6404 19.2357 44.3054 18.2231C39.4829 17.3079 35.7937 19.3273 32.7554 23.2081Z" fill="#EF61E8"/>
<path d="M64.7937 73.9947L80.997 68.3849C84.1472 67.247 87.6458 68.4856 89.1396 71.2699C91.1706 75.0536 89.4163 79.3463 85.8633 80.7979L53.7836 95.023C50.9161 96.3347 47.8666 97 44.7192 97C40.7472 97 36.8485 95.9121 33.4432 93.854L24.4546 88.4226C23.04 87.568 20.7888 86.9886 18.8431 86.7452C18.0979 88.6911 16.2207 90.0764 14.0313 90.0764H3.71876C2.76941 90.0764 2 89.3016 2 88.3456V57.1903C2 56.2342 2.76941 55.4594 3.71876 55.4594H14.0313C16.2717 55.4594 18.1825 56.9063 18.8915 58.9205H31.0759C33.1404 58.9205 35.1807 59.4593 36.976 60.4783L46.0566 65.6216C46.3137 65.7676 46.6051 65.844 46.9005 65.844H58.0308C61.8222 65.844 64.9058 68.9501 64.9058 72.7676C64.9058 73.1834 64.8656 73.5931 64.7937 73.9947Z" fill="#EF61E8"/>
</g>
</svg>
