<svg width="32" height="32" viewBox="0 0 32 32" fill="none" xmlns="http://www.w3.org/2000/svg">
<path fill-rule="evenodd" clip-rule="evenodd" d="M11 7C8.79086 7 7 8.79086 7 11V21C7 23.2091 8.79086 25 11 25H21C23.2091 25 25 23.2091 25 21V11C25 8.79086 23.2091 7 21 7H11ZM5 11C5 7.68629 7.68629 5 11 5H21C24.3137 5 27 7.68629 27 11V21C27 24.3137 24.3137 27 21 27H11C7.68629 27 5 24.3137 5 21V11Z" fill="#BD00B3"/>
<path fill-rule="evenodd" clip-rule="evenodd" d="M16.4833 12.9892C15.8591 12.8967 15.2217 13.0033 14.6616 13.2939C14.1015 13.5845 13.6473 14.0444 13.3636 14.608C13.0799 15.1717 12.9811 15.8104 13.0814 16.4334C13.1816 17.0564 13.4758 17.6319 13.922 18.0781C14.3682 18.5243 14.9437 18.8184 15.5667 18.9187C16.1897 19.0189 16.8284 18.9202 17.392 18.6365C17.9557 18.3528 18.4155 17.8986 18.7061 17.3385C18.9968 16.7784 19.1034 16.1409 19.0108 15.5167C18.9164 14.88 18.6197 14.2906 18.1646 13.8355C17.7095 13.3803 17.12 13.0837 16.4833 12.9892ZM13.7404 11.5187C14.6739 11.0343 15.7364 10.8566 16.7767 11.0109C17.8379 11.1682 18.8203 11.6627 19.5788 12.4213C20.3374 13.1798 20.8318 14.1622 20.9892 15.2234C21.1435 16.2637 20.9658 17.3261 20.4814 18.2596C19.997 19.1931 19.2306 19.9501 18.2912 20.423C17.3518 20.8958 16.2873 21.0604 15.2489 20.8933C14.2106 20.7262 13.2514 20.236 12.5077 19.4923C11.7641 18.7487 11.2739 17.7895 11.1068 16.7511C10.9397 15.7128 11.1043 14.6482 11.5771 13.7088C12.0499 12.7694 12.8069 12.0031 13.7404 11.5187Z" fill="#BD00B3"/>
<path fill-rule="evenodd" clip-rule="evenodd" d="M20.5 10.5C20.5 9.94772 20.9477 9.5 21.5 9.5H21.51C22.0623 9.5 22.51 9.94772 22.51 10.5C22.51 11.0523 22.0623 11.5 21.51 11.5H21.5C20.9477 11.5 20.5 11.0523 20.5 10.5Z" fill="#BD00B3"/>
</svg>
